<svg width="571" height="304" viewBox="0 0 571 304" fill="none" xmlns="http://www.w3.org/2000/svg">
<mask id="path-1-outside-1_178_2848" maskUnits="userSpaceOnUse" x="69" y="179" width="495" height="86" fill="black">
<rect fill="white" x="69" y="179" width="495" height="86"/>
<path d="M101.992 181.384C105.917 181.384 109.245 181.811 111.976 182.664C114.792 183.517 117.437 184.669 119.912 186.12C120.851 186.632 121.661 187.059 122.344 187.4C123.112 187.741 123.752 187.912 124.264 187.912C125.032 187.912 125.629 187.485 126.056 186.632C126.483 185.693 126.824 184.243 127.08 182.28H130.024C129.597 187.4 129.384 196.275 129.384 208.904H126.44C125.501 201.224 123.027 195.208 119.016 190.856C115.005 186.419 109.757 184.2 103.272 184.2C99.0053 184.2 95.5493 185.139 92.904 187.016C90.344 188.893 89.064 191.325 89.064 194.312C89.064 196.616 89.7467 198.749 91.112 200.712C92.5627 202.589 94.44 204.339 96.744 205.96C99.048 207.581 102.419 209.715 106.856 212.36L109.672 214.024C114.792 216.925 118.973 219.571 122.216 221.96C125.459 224.264 128.147 227.037 130.28 230.28C132.413 233.437 133.48 237.021 133.48 241.032C133.48 248.029 130.579 253.405 124.776 257.16C118.973 260.915 111.336 262.792 101.864 262.792C97.768 262.792 94.2267 262.323 91.24 261.384C88.2533 260.531 85.224 259.336 82.152 257.8C80.0187 256.776 78.5253 256.264 77.672 256.264C76.904 256.264 76.3067 256.733 75.88 257.672C75.4533 258.525 75.112 259.933 74.856 261.896H71.912C72.2533 257.117 72.424 246.707 72.424 230.664H75.368C75.9653 239.709 78.3973 246.835 82.664 252.04C87.016 257.245 93.1173 259.848 100.968 259.848C104.808 259.848 108.136 258.867 110.952 256.904C113.768 254.941 115.176 252.04 115.176 248.2C115.176 244.787 113.853 241.843 111.208 239.368C108.563 236.893 104.04 233.779 97.64 230.024C89.5333 225.416 83.304 221.021 78.952 216.84C74.6853 212.659 72.552 207.752 72.552 202.12C72.552 195.464 75.2827 190.344 80.744 186.76C86.2907 183.176 93.3733 181.384 101.992 181.384ZM183.8 181.384C192.419 181.384 199.971 182.963 206.456 186.12C212.941 189.192 217.976 193.757 221.56 199.816C225.144 205.789 226.936 212.957 226.936 221.32C226.936 229.512 225.101 236.765 221.432 243.08C217.763 249.309 212.643 254.173 206.072 257.672C199.501 261.085 192.035 262.792 183.672 262.792C175.053 262.792 167.501 261.256 161.016 258.184C154.531 255.027 149.496 250.461 145.912 244.488C142.328 238.429 140.536 231.219 140.536 222.856C140.536 214.664 142.371 207.453 146.04 201.224C149.709 194.909 154.829 190.045 161.4 186.632C167.971 183.133 175.437 181.384 183.8 181.384ZM183.288 183.688C178.851 183.688 174.925 185.352 171.512 188.68C168.184 191.923 165.581 196.488 163.704 202.376C161.912 208.179 161.016 214.835 161.016 222.344C161.016 229.939 162.04 236.637 164.088 242.44C166.136 248.243 168.909 252.723 172.408 255.88C175.992 258.952 179.917 260.488 184.184 260.488C188.621 260.488 192.504 258.867 195.832 255.624C199.245 252.296 201.848 247.731 203.64 241.928C205.517 236.04 206.456 229.341 206.456 221.832C206.456 214.237 205.432 207.539 203.384 201.736C201.336 195.933 198.52 191.496 194.936 188.424C191.437 185.267 187.555 183.688 183.288 183.688ZM270.456 185.736C267.555 185.907 265.464 186.248 264.184 186.76C262.904 187.272 262.008 188.253 261.496 189.704C261.069 191.155 260.856 193.501 260.856 196.744V248.968C260.856 251.613 261.069 253.576 261.496 254.856C262.008 256.136 262.819 256.989 263.928 257.416C265.037 257.843 266.701 258.056 268.92 258.056H273.912C279.544 258.056 284.28 256.051 288.12 252.04C291.96 247.944 294.563 241.373 295.928 232.328H298.872C298.616 235.144 298.488 238.643 298.488 242.824C298.488 248.115 298.787 254.173 299.384 261C293.837 260.744 284.493 260.616 271.352 260.616C253.773 260.616 240.547 260.744 231.672 261V258.44C234.573 258.269 236.664 257.928 237.944 257.416C239.224 256.904 240.077 255.923 240.504 254.472C241.016 253.021 241.272 250.675 241.272 247.432V196.744C241.272 193.501 241.016 191.155 240.504 189.704C240.077 188.253 239.181 187.272 237.816 186.76C236.536 186.248 234.488 185.907 231.672 185.736V183.176C236.024 183.432 242.765 183.56 251.896 183.56C259.917 183.56 266.104 183.432 270.456 183.176V185.736ZM362.788 183.56C366.543 183.56 369.657 183.432 372.132 183.176V185.736C369.913 186.589 367.865 188.253 365.988 190.728C364.111 193.117 362.148 196.701 360.1 201.48L335.012 261.256C334.329 261.171 333.348 261.128 332.068 261.128C330.788 261.128 329.807 261.171 329.124 261.256L297.508 193.928C295.033 188.637 292.345 185.907 289.444 185.736V183.176C293.455 183.432 299.044 183.56 306.212 183.56C315.343 183.56 322.084 183.432 326.436 183.176V185.736C323.62 185.907 321.529 186.376 320.164 187.144C318.799 187.827 318.116 188.979 318.116 190.6C318.116 192.221 318.671 194.184 319.78 196.488L340.388 241.288L353.316 211.208C356.047 204.637 357.412 199.389 357.412 195.464C357.412 189.235 353.956 185.992 347.044 185.736V183.176C351.908 183.432 357.156 183.56 362.788 183.56ZM438.558 244.36C438.558 249.224 438.857 254.771 439.454 261C433.907 260.744 424.563 260.616 411.422 260.616C393.843 260.616 380.617 260.744 371.742 261V258.44C374.643 258.269 376.734 257.928 378.014 257.416C379.294 256.904 380.147 255.923 380.574 254.472C381.086 253.021 381.342 250.675 381.342 247.432V196.744C381.342 193.501 381.086 191.155 380.574 189.704C380.147 188.253 379.251 187.272 377.886 186.76C376.606 186.248 374.558 185.907 371.742 185.736V183.176C380.617 183.432 393.843 183.56 411.422 183.56C423.369 183.56 431.859 183.432 436.894 183.176C436.297 188.893 435.998 194.013 435.998 198.536C435.998 201.864 436.126 204.509 436.382 206.472H433.438C432.158 199.133 429.939 193.928 426.782 190.856C423.625 187.699 419.273 186.12 413.726 186.12H408.99C406.771 186.12 405.107 186.333 403.998 186.76C402.889 187.101 402.078 187.869 401.566 189.064C401.139 190.173 400.926 191.965 400.926 194.44V220.552H406.942C410.867 220.552 413.811 219.187 415.774 216.456C417.822 213.64 419.187 210.397 419.87 206.728H422.814C422.558 209.629 422.43 212.957 422.43 216.712V221.832C422.43 225.672 422.686 230.707 423.198 236.936H420.254C419.657 232.925 418.291 229.64 416.158 227.08C414.11 224.435 411.038 223.112 406.942 223.112H400.926V249.736C400.926 252.211 401.139 254.045 401.566 255.24C402.078 256.349 402.889 257.117 403.998 257.544C405.107 257.885 406.771 258.056 408.99 258.056H414.494C420.553 258.056 425.289 256.307 428.702 252.808C432.201 249.309 434.633 243.421 435.998 235.144H438.942C438.686 237.533 438.558 240.605 438.558 244.36ZM484.686 183.176C499.619 183.176 510.798 186.419 518.222 192.904C525.646 199.304 529.358 208.691 529.358 221.064C529.358 229.085 527.566 236.125 523.982 242.184C520.398 248.157 515.15 252.808 508.238 256.136C501.326 259.379 493.091 261 483.534 261L475.342 260.872C469.881 260.701 465.87 260.616 463.31 260.616C455.715 260.616 449.913 260.744 445.902 261V258.44C448.803 258.269 450.894 257.928 452.174 257.416C453.454 256.904 454.307 255.923 454.734 254.472C455.246 253.021 455.502 250.675 455.502 247.432V196.744C455.502 193.501 455.246 191.155 454.734 189.704C454.307 188.253 453.454 187.272 452.174 186.76C450.894 186.248 448.803 185.907 445.902 185.736V183.176C449.145 183.432 453.71 183.56 459.598 183.56L471.886 183.432C478.201 183.261 482.467 183.176 484.686 183.176ZM483.022 185.48C480.803 185.48 479.139 185.779 478.03 186.376C476.921 186.973 476.153 188.04 475.726 189.576C475.299 191.112 475.086 193.416 475.086 196.488V247.688C475.086 250.76 475.299 253.064 475.726 254.6C476.153 256.136 476.921 257.203 478.03 257.8C479.139 258.397 480.846 258.696 483.15 258.696C489.721 258.696 494.883 257.331 498.638 254.6C502.393 251.784 505.038 247.688 506.574 242.312C508.11 236.936 508.878 230.024 508.878 221.576C508.878 209.117 506.915 199.987 502.99 194.184C499.065 188.381 492.409 185.48 483.022 185.48ZM550.794 181.384C553.695 181.384 556.17 182.365 558.218 184.328C560.266 186.291 561.29 188.979 561.29 192.392C561.29 194.44 560.991 196.616 560.394 198.92C559.882 201.224 558.943 204.808 557.578 209.672C555.957 215.133 554.677 219.869 553.738 223.88C552.799 227.805 552.202 231.816 551.946 235.912H549.642C549.386 231.816 548.789 227.805 547.85 223.88C546.911 219.869 545.631 215.133 544.01 209.672C542.645 204.808 541.663 201.224 541.066 198.92C540.554 196.616 540.298 194.44 540.298 192.392C540.298 188.979 541.279 186.291 543.242 184.328C545.205 182.365 547.722 181.384 550.794 181.384ZM550.922 243.08C554.25 243.08 556.895 243.976 558.858 245.768C560.821 247.475 561.802 249.864 561.802 252.936C561.802 256.008 560.821 258.44 558.858 260.232C556.895 261.939 554.25 262.792 550.922 262.792C547.594 262.792 544.949 261.939 542.986 260.232C541.023 258.44 540.042 256.008 540.042 252.936C540.042 249.864 541.023 247.475 542.986 245.768C544.949 243.976 547.594 243.08 550.922 243.08Z"/>
</mask>
<path d="M101.992 181.384C105.917 181.384 109.245 181.811 111.976 182.664C114.792 183.517 117.437 184.669 119.912 186.12C120.851 186.632 121.661 187.059 122.344 187.4C123.112 187.741 123.752 187.912 124.264 187.912C125.032 187.912 125.629 187.485 126.056 186.632C126.483 185.693 126.824 184.243 127.08 182.28H130.024C129.597 187.4 129.384 196.275 129.384 208.904H126.44C125.501 201.224 123.027 195.208 119.016 190.856C115.005 186.419 109.757 184.2 103.272 184.2C99.0053 184.2 95.5493 185.139 92.904 187.016C90.344 188.893 89.064 191.325 89.064 194.312C89.064 196.616 89.7467 198.749 91.112 200.712C92.5627 202.589 94.44 204.339 96.744 205.96C99.048 207.581 102.419 209.715 106.856 212.36L109.672 214.024C114.792 216.925 118.973 219.571 122.216 221.96C125.459 224.264 128.147 227.037 130.28 230.28C132.413 233.437 133.48 237.021 133.48 241.032C133.48 248.029 130.579 253.405 124.776 257.16C118.973 260.915 111.336 262.792 101.864 262.792C97.768 262.792 94.2267 262.323 91.24 261.384C88.2533 260.531 85.224 259.336 82.152 257.8C80.0187 256.776 78.5253 256.264 77.672 256.264C76.904 256.264 76.3067 256.733 75.88 257.672C75.4533 258.525 75.112 259.933 74.856 261.896H71.912C72.2533 257.117 72.424 246.707 72.424 230.664H75.368C75.9653 239.709 78.3973 246.835 82.664 252.04C87.016 257.245 93.1173 259.848 100.968 259.848C104.808 259.848 108.136 258.867 110.952 256.904C113.768 254.941 115.176 252.04 115.176 248.2C115.176 244.787 113.853 241.843 111.208 239.368C108.563 236.893 104.04 233.779 97.64 230.024C89.5333 225.416 83.304 221.021 78.952 216.84C74.6853 212.659 72.552 207.752 72.552 202.12C72.552 195.464 75.2827 190.344 80.744 186.76C86.2907 183.176 93.3733 181.384 101.992 181.384ZM183.8 181.384C192.419 181.384 199.971 182.963 206.456 186.12C212.941 189.192 217.976 193.757 221.56 199.816C225.144 205.789 226.936 212.957 226.936 221.32C226.936 229.512 225.101 236.765 221.432 243.08C217.763 249.309 212.643 254.173 206.072 257.672C199.501 261.085 192.035 262.792 183.672 262.792C175.053 262.792 167.501 261.256 161.016 258.184C154.531 255.027 149.496 250.461 145.912 244.488C142.328 238.429 140.536 231.219 140.536 222.856C140.536 214.664 142.371 207.453 146.04 201.224C149.709 194.909 154.829 190.045 161.4 186.632C167.971 183.133 175.437 181.384 183.8 181.384ZM183.288 183.688C178.851 183.688 174.925 185.352 171.512 188.68C168.184 191.923 165.581 196.488 163.704 202.376C161.912 208.179 161.016 214.835 161.016 222.344C161.016 229.939 162.04 236.637 164.088 242.44C166.136 248.243 168.909 252.723 172.408 255.88C175.992 258.952 179.917 260.488 184.184 260.488C188.621 260.488 192.504 258.867 195.832 255.624C199.245 252.296 201.848 247.731 203.64 241.928C205.517 236.04 206.456 229.341 206.456 221.832C206.456 214.237 205.432 207.539 203.384 201.736C201.336 195.933 198.52 191.496 194.936 188.424C191.437 185.267 187.555 183.688 183.288 183.688ZM270.456 185.736C267.555 185.907 265.464 186.248 264.184 186.76C262.904 187.272 262.008 188.253 261.496 189.704C261.069 191.155 260.856 193.501 260.856 196.744V248.968C260.856 251.613 261.069 253.576 261.496 254.856C262.008 256.136 262.819 256.989 263.928 257.416C265.037 257.843 266.701 258.056 268.92 258.056H273.912C279.544 258.056 284.28 256.051 288.12 252.04C291.96 247.944 294.563 241.373 295.928 232.328H298.872C298.616 235.144 298.488 238.643 298.488 242.824C298.488 248.115 298.787 254.173 299.384 261C293.837 260.744 284.493 260.616 271.352 260.616C253.773 260.616 240.547 260.744 231.672 261V258.44C234.573 258.269 236.664 257.928 237.944 257.416C239.224 256.904 240.077 255.923 240.504 254.472C241.016 253.021 241.272 250.675 241.272 247.432V196.744C241.272 193.501 241.016 191.155 240.504 189.704C240.077 188.253 239.181 187.272 237.816 186.76C236.536 186.248 234.488 185.907 231.672 185.736V183.176C236.024 183.432 242.765 183.56 251.896 183.56C259.917 183.56 266.104 183.432 270.456 183.176V185.736ZM362.788 183.56C366.543 183.56 369.657 183.432 372.132 183.176V185.736C369.913 186.589 367.865 188.253 365.988 190.728C364.111 193.117 362.148 196.701 360.1 201.48L335.012 261.256C334.329 261.171 333.348 261.128 332.068 261.128C330.788 261.128 329.807 261.171 329.124 261.256L297.508 193.928C295.033 188.637 292.345 185.907 289.444 185.736V183.176C293.455 183.432 299.044 183.56 306.212 183.56C315.343 183.56 322.084 183.432 326.436 183.176V185.736C323.62 185.907 321.529 186.376 320.164 187.144C318.799 187.827 318.116 188.979 318.116 190.6C318.116 192.221 318.671 194.184 319.78 196.488L340.388 241.288L353.316 211.208C356.047 204.637 357.412 199.389 357.412 195.464C357.412 189.235 353.956 185.992 347.044 185.736V183.176C351.908 183.432 357.156 183.56 362.788 183.56ZM438.558 244.36C438.558 249.224 438.857 254.771 439.454 261C433.907 260.744 424.563 260.616 411.422 260.616C393.843 260.616 380.617 260.744 371.742 261V258.44C374.643 258.269 376.734 257.928 378.014 257.416C379.294 256.904 380.147 255.923 380.574 254.472C381.086 253.021 381.342 250.675 381.342 247.432V196.744C381.342 193.501 381.086 191.155 380.574 189.704C380.147 188.253 379.251 187.272 377.886 186.76C376.606 186.248 374.558 185.907 371.742 185.736V183.176C380.617 183.432 393.843 183.56 411.422 183.56C423.369 183.56 431.859 183.432 436.894 183.176C436.297 188.893 435.998 194.013 435.998 198.536C435.998 201.864 436.126 204.509 436.382 206.472H433.438C432.158 199.133 429.939 193.928 426.782 190.856C423.625 187.699 419.273 186.12 413.726 186.12H408.99C406.771 186.12 405.107 186.333 403.998 186.76C402.889 187.101 402.078 187.869 401.566 189.064C401.139 190.173 400.926 191.965 400.926 194.44V220.552H406.942C410.867 220.552 413.811 219.187 415.774 216.456C417.822 213.64 419.187 210.397 419.87 206.728H422.814C422.558 209.629 422.43 212.957 422.43 216.712V221.832C422.43 225.672 422.686 230.707 423.198 236.936H420.254C419.657 232.925 418.291 229.64 416.158 227.08C414.11 224.435 411.038 223.112 406.942 223.112H400.926V249.736C400.926 252.211 401.139 254.045 401.566 255.24C402.078 256.349 402.889 257.117 403.998 257.544C405.107 257.885 406.771 258.056 408.99 258.056H414.494C420.553 258.056 425.289 256.307 428.702 252.808C432.201 249.309 434.633 243.421 435.998 235.144H438.942C438.686 237.533 438.558 240.605 438.558 244.36ZM484.686 183.176C499.619 183.176 510.798 186.419 518.222 192.904C525.646 199.304 529.358 208.691 529.358 221.064C529.358 229.085 527.566 236.125 523.982 242.184C520.398 248.157 515.15 252.808 508.238 256.136C501.326 259.379 493.091 261 483.534 261L475.342 260.872C469.881 260.701 465.87 260.616 463.31 260.616C455.715 260.616 449.913 260.744 445.902 261V258.44C448.803 258.269 450.894 257.928 452.174 257.416C453.454 256.904 454.307 255.923 454.734 254.472C455.246 253.021 455.502 250.675 455.502 247.432V196.744C455.502 193.501 455.246 191.155 454.734 189.704C454.307 188.253 453.454 187.272 452.174 186.76C450.894 186.248 448.803 185.907 445.902 185.736V183.176C449.145 183.432 453.71 183.56 459.598 183.56L471.886 183.432C478.201 183.261 482.467 183.176 484.686 183.176ZM483.022 185.48C480.803 185.48 479.139 185.779 478.03 186.376C476.921 186.973 476.153 188.04 475.726 189.576C475.299 191.112 475.086 193.416 475.086 196.488V247.688C475.086 250.76 475.299 253.064 475.726 254.6C476.153 256.136 476.921 257.203 478.03 257.8C479.139 258.397 480.846 258.696 483.15 258.696C489.721 258.696 494.883 257.331 498.638 254.6C502.393 251.784 505.038 247.688 506.574 242.312C508.11 236.936 508.878 230.024 508.878 221.576C508.878 209.117 506.915 199.987 502.99 194.184C499.065 188.381 492.409 185.48 483.022 185.48ZM550.794 181.384C553.695 181.384 556.17 182.365 558.218 184.328C560.266 186.291 561.29 188.979 561.29 192.392C561.29 194.44 560.991 196.616 560.394 198.92C559.882 201.224 558.943 204.808 557.578 209.672C555.957 215.133 554.677 219.869 553.738 223.88C552.799 227.805 552.202 231.816 551.946 235.912H549.642C549.386 231.816 548.789 227.805 547.85 223.88C546.911 219.869 545.631 215.133 544.01 209.672C542.645 204.808 541.663 201.224 541.066 198.92C540.554 196.616 540.298 194.44 540.298 192.392C540.298 188.979 541.279 186.291 543.242 184.328C545.205 182.365 547.722 181.384 550.794 181.384ZM550.922 243.08C554.25 243.08 556.895 243.976 558.858 245.768C560.821 247.475 561.802 249.864 561.802 252.936C561.802 256.008 560.821 258.44 558.858 260.232C556.895 261.939 554.25 262.792 550.922 262.792C547.594 262.792 544.949 261.939 542.986 260.232C541.023 258.44 540.042 256.008 540.042 252.936C540.042 249.864 541.023 247.475 542.986 245.768C544.949 243.976 547.594 243.08 550.922 243.08Z" fill="url(#paint0_linear_178_2848)"/>
<path d="M111.976 182.664L111.379 184.573L111.388 184.576L111.396 184.578L111.976 182.664ZM119.912 186.12L118.901 187.845L118.927 187.861L118.954 187.876L119.912 186.12ZM122.344 187.4L121.45 189.189L121.49 189.209L121.532 189.228L122.344 187.4ZM126.056 186.632L127.845 187.526L127.861 187.493L127.877 187.46L126.056 186.632ZM127.08 182.28V180.28H125.324L125.097 182.021L127.08 182.28ZM130.024 182.28L132.017 182.446L132.198 180.28H130.024V182.28ZM129.384 208.904V210.904H131.384V208.904H129.384ZM126.44 208.904L124.455 209.147L124.67 210.904H126.44V208.904ZM119.016 190.856L117.532 192.197L117.539 192.204L117.545 192.211L119.016 190.856ZM92.904 187.016L91.7465 185.385L91.7338 185.394L91.7213 185.403L92.904 187.016ZM91.112 200.712L89.4702 201.854L89.4988 201.895L89.5294 201.935L91.112 200.712ZM96.744 205.96L95.593 207.596L96.744 205.96ZM106.856 212.36L105.832 214.078L105.839 214.082L106.856 212.36ZM109.672 214.024L108.655 215.746L108.67 215.755L108.686 215.764L109.672 214.024ZM122.216 221.96L121.03 223.57L121.044 223.58L121.058 223.59L122.216 221.96ZM130.28 230.28L128.609 231.379L128.616 231.39L128.623 231.4L130.28 230.28ZM124.776 257.16L123.689 255.481L124.776 257.16ZM91.24 261.384L91.8397 259.476L91.8146 259.468L91.7894 259.461L91.24 261.384ZM82.152 257.8L83.0464 256.011L83.032 256.004L83.0175 255.997L82.152 257.8ZM75.88 257.672L77.6689 258.566L77.6854 258.533L77.7007 258.5L75.88 257.672ZM74.856 261.896V263.896H76.6121L76.8392 262.155L74.856 261.896ZM71.912 261.896L69.9171 261.754L69.764 263.896H71.912V261.896ZM72.424 230.664V228.664H70.424V230.664H72.424ZM75.368 230.664L77.3637 230.532L77.2403 228.664H75.368V230.664ZM82.664 252.04L81.1172 253.308L81.1234 253.315L81.1296 253.323L82.664 252.04ZM110.952 256.904L112.096 258.545L110.952 256.904ZM111.208 239.368L112.574 237.907L111.208 239.368ZM97.64 230.024L98.652 228.299L98.6402 228.292L98.6283 228.285L97.64 230.024ZM78.952 216.84L77.5521 218.268L77.5592 218.275L77.5663 218.282L78.952 216.84ZM80.744 186.76L79.6586 185.08L79.6526 185.084L79.6467 185.088L80.744 186.76ZM101.992 183.384C105.785 183.384 108.899 183.798 111.379 184.573L112.573 180.755C109.592 179.824 106.05 179.384 101.992 179.384V183.384ZM111.396 184.578C114.065 185.387 116.565 186.476 118.901 187.845L120.923 184.395C118.309 182.862 115.519 181.648 112.556 180.75L111.396 184.578ZM118.954 187.876C119.906 188.395 120.739 188.834 121.45 189.189L123.238 185.611C122.584 185.284 121.795 184.869 120.87 184.364L118.954 187.876ZM121.532 189.228C122.412 189.619 123.349 189.912 124.264 189.912V185.912C124.155 185.912 123.812 185.864 123.156 185.572L121.532 189.228ZM124.264 189.912C125.987 189.912 127.178 188.86 127.845 187.526L124.267 185.738C124.157 185.957 124.091 185.989 124.126 185.965C124.144 185.951 124.174 185.935 124.211 185.923C124.248 185.912 124.269 185.912 124.264 185.912V189.912ZM127.877 187.46C128.43 186.243 128.801 184.552 129.063 182.539L125.097 182.021C124.847 183.933 124.536 185.144 124.235 185.804L127.877 187.46ZM127.08 184.28H130.024V180.28H127.08V184.28ZM128.031 182.114C127.597 187.326 127.384 196.276 127.384 208.904H131.384C131.384 196.273 131.598 187.474 132.017 182.446L128.031 182.114ZM129.384 206.904H126.44V210.904H129.384V206.904ZM128.425 208.661C127.451 200.693 124.857 194.243 120.487 189.501L117.545 192.211C121.196 196.173 123.551 201.755 124.455 209.147L128.425 208.661ZM120.5 189.515C116.075 184.62 110.269 182.2 103.272 182.2V186.2C109.245 186.2 113.935 188.217 117.532 192.197L120.5 189.515ZM103.272 182.2C98.7202 182.2 94.8223 183.202 91.7465 185.385L94.0615 188.647C96.2763 187.075 99.2904 186.2 103.272 186.2V182.2ZM91.7213 185.403C88.6853 187.63 87.064 190.643 87.064 194.312H91.064C91.064 192.008 92.0027 190.157 94.0867 188.629L91.7213 185.403ZM87.064 194.312C87.064 197.04 87.881 199.57 89.4702 201.854L92.7538 199.57C91.6123 197.929 91.064 196.192 91.064 194.312H87.064ZM89.5294 201.935C91.1229 203.997 93.1551 205.88 95.593 207.596L97.895 204.324C95.7249 202.797 94.0024 201.182 92.6946 199.489L89.5294 201.935ZM95.593 207.596C97.959 209.261 101.38 211.424 105.832 214.078L107.88 210.642C103.457 208.005 100.137 205.902 97.895 204.324L95.593 207.596ZM105.839 214.082L108.655 215.746L110.689 212.302L107.873 210.638L105.839 214.082ZM108.686 215.764C113.765 218.642 117.873 221.244 121.03 223.57L123.402 220.35C120.074 217.897 115.819 215.208 110.658 212.284L108.686 215.764ZM121.058 223.59C124.103 225.754 126.616 228.349 128.609 231.379L131.951 229.181C129.678 225.726 126.814 222.774 123.374 220.33L121.058 223.59ZM128.623 231.4C130.521 234.208 131.48 237.398 131.48 241.032H135.48C135.48 236.644 134.306 232.666 131.937 229.16L128.623 231.4ZM131.48 241.032C131.48 247.361 128.914 252.1 123.689 255.481L125.863 258.839C132.243 254.71 135.48 248.698 135.48 241.032H131.48ZM123.689 255.481C118.31 258.962 111.089 260.792 101.864 260.792V264.792C111.583 264.792 119.637 262.867 125.863 258.839L123.689 255.481ZM101.864 260.792C97.9124 260.792 94.5831 260.338 91.8397 259.476L90.6403 263.292C93.8703 264.307 97.6236 264.792 101.864 264.792V260.792ZM91.7894 259.461C88.9334 258.645 86.0193 257.498 83.0464 256.011L81.2576 259.589C84.4287 261.174 87.5733 262.416 90.6906 263.307L91.7894 259.461ZM83.0175 255.997C81.9114 255.466 80.9279 255.047 80.0806 254.756C79.2711 254.479 78.4336 254.264 77.672 254.264V258.264C77.7638 258.264 78.0996 258.305 78.7834 258.54C79.4294 258.761 80.2593 259.11 81.2865 259.603L83.0175 255.997ZM77.672 254.264C75.8441 254.264 74.6785 255.482 74.0593 256.844L77.7007 258.5C77.7615 258.366 77.8137 258.281 77.8495 258.232C77.8845 258.184 77.8986 258.177 77.8836 258.189C77.8663 258.202 77.83 258.226 77.7782 258.243C77.7266 258.261 77.687 258.264 77.672 258.264V254.264ZM74.0911 256.778C73.506 257.948 73.1335 259.639 72.8728 261.637L76.8392 262.155C77.0905 260.228 77.4007 259.103 77.6689 258.566L74.0911 256.778ZM74.856 259.896H71.912V263.896H74.856V259.896ZM73.9069 262.038C74.2543 257.175 74.424 246.689 74.424 230.664H70.424C70.424 246.724 70.2524 257.06 69.9171 261.754L73.9069 262.038ZM72.424 232.664H75.368V228.664H72.424V232.664ZM73.3723 230.796C73.9878 240.115 76.5083 247.685 81.1172 253.308L84.2108 250.772C80.2864 245.984 77.9429 239.303 77.3637 230.532L73.3723 230.796ZM81.1296 253.323C85.9235 259.057 92.6287 261.848 100.968 261.848V257.848C93.606 257.848 88.1085 255.434 84.1984 250.757L81.1296 253.323ZM100.968 261.848C105.166 261.848 108.905 260.769 112.096 258.545L109.808 255.263C107.367 256.965 104.45 257.848 100.968 257.848V261.848ZM112.096 258.545C115.518 256.159 117.176 252.604 117.176 248.2H113.176C113.176 251.476 112.018 253.723 109.808 255.263L112.096 258.545ZM117.176 248.2C117.176 244.196 115.596 240.734 112.574 237.907L109.842 240.829C112.111 242.951 113.176 245.377 113.176 248.2H117.176ZM112.574 237.907C109.759 235.274 105.076 232.068 98.652 228.299L96.628 231.749C103.004 235.49 107.366 238.513 109.842 240.829L112.574 237.907ZM98.6283 228.285C90.5967 223.72 84.5238 219.42 80.3377 215.398L77.5663 218.282C82.0843 222.623 88.4699 227.112 96.6517 231.763L98.6283 228.285ZM80.3519 215.412C76.4431 211.581 74.552 207.179 74.552 202.12H70.552C70.552 208.325 72.9276 213.736 77.5521 218.268L80.3519 215.412ZM74.552 202.12C74.552 196.122 76.9561 191.638 81.8413 188.432L79.6467 185.088C73.6092 189.05 70.552 194.806 70.552 202.12H74.552ZM81.8294 188.44C86.9676 185.12 93.6428 183.384 101.992 183.384V179.384C93.1039 179.384 85.6138 181.232 79.6586 185.08L81.8294 188.44ZM206.456 186.12L205.581 187.918L205.59 187.923L205.6 187.927L206.456 186.12ZM221.56 199.816L219.839 200.834L219.845 200.845L221.56 199.816ZM221.432 243.08L223.155 244.095L223.161 244.085L221.432 243.08ZM206.072 257.672L206.994 259.447L207.003 259.442L207.012 259.437L206.072 257.672ZM161.016 258.184L160.141 259.982L160.15 259.987L160.16 259.991L161.016 258.184ZM145.912 244.488L144.191 245.506L144.197 245.517L145.912 244.488ZM146.04 201.224L147.763 202.239L147.769 202.229L146.04 201.224ZM161.4 186.632L162.322 188.407L162.331 188.402L162.34 188.397L161.4 186.632ZM171.512 188.68L172.908 190.112L172.908 190.112L171.512 188.68ZM163.704 202.376L161.799 201.768L161.796 201.777L161.793 201.786L163.704 202.376ZM164.088 242.44L165.974 241.774L164.088 242.44ZM172.408 255.88L171.068 257.365L171.087 257.382L171.106 257.399L172.408 255.88ZM195.832 255.624L197.228 257.056L197.228 257.056L195.832 255.624ZM203.64 241.928L201.735 241.32L201.732 241.329L201.729 241.338L203.64 241.928ZM203.384 201.736L205.27 201.07L203.384 201.736ZM194.936 188.424L193.596 189.909L193.615 189.926L193.634 189.943L194.936 188.424ZM183.8 183.384C192.174 183.384 199.416 184.917 205.581 187.918L207.331 184.322C200.525 181.008 192.664 179.384 183.8 179.384V183.384ZM205.6 187.927C211.732 190.832 216.462 195.126 219.839 200.834L223.281 198.798C219.49 192.389 214.151 187.552 207.312 184.313L205.6 187.927ZM219.845 200.845C223.208 206.45 224.936 213.247 224.936 221.32H228.936C228.936 212.668 227.08 205.128 223.275 198.787L219.845 200.845ZM224.936 221.32C224.936 229.203 223.174 236.102 219.703 242.075L223.161 244.085C227.029 237.429 228.936 229.821 228.936 221.32H224.936ZM219.709 242.065C216.232 247.967 211.388 252.576 205.132 255.907L207.012 259.437C213.898 255.771 219.293 250.652 223.155 244.095L219.709 242.065ZM205.15 255.897C198.899 259.144 191.756 260.792 183.672 260.792V264.792C192.314 264.792 200.103 263.026 206.994 259.447L205.15 255.897ZM183.672 260.792C175.291 260.792 168.041 259.299 161.872 256.377L160.16 259.991C166.961 263.213 174.816 264.792 183.672 264.792V260.792ZM161.891 256.386C155.742 253.392 151.004 249.088 147.627 243.459L144.197 245.517C147.988 251.835 153.32 256.662 160.141 259.982L161.891 256.386ZM147.633 243.47C144.263 237.773 142.536 230.928 142.536 222.856H138.536C138.536 231.509 140.393 239.086 144.191 245.506L147.633 243.47ZM142.536 222.856C142.536 214.973 144.298 208.122 147.763 202.239L144.317 200.209C140.443 206.785 138.536 214.355 138.536 222.856H142.536ZM147.769 202.229C151.245 196.247 156.083 191.648 162.322 188.407L160.478 184.857C153.576 188.443 148.173 193.572 144.311 200.219L147.769 202.229ZM162.34 188.397C168.587 185.071 175.724 183.384 183.8 183.384V179.384C175.151 179.384 167.354 181.196 160.46 184.867L162.34 188.397ZM183.288 181.688C178.288 181.688 173.872 183.586 170.116 187.248L172.908 190.112C175.979 187.118 179.414 185.688 183.288 185.688V181.688ZM170.116 187.248C166.489 190.782 163.744 195.667 161.799 201.768L165.609 202.984C167.419 197.309 169.879 193.063 172.908 190.112L170.116 187.248ZM161.793 201.786C159.93 207.819 159.016 214.68 159.016 222.344H163.016C163.016 214.989 163.894 208.539 165.615 202.966L161.793 201.786ZM159.016 222.344C159.016 230.114 160.063 237.046 162.202 243.106L165.974 241.774C164.017 236.229 163.016 229.763 163.016 222.344H159.016ZM162.202 243.106C164.328 249.13 167.258 253.926 171.068 257.365L173.748 254.395C170.561 251.519 167.944 247.356 165.974 241.774L162.202 243.106ZM171.106 257.399C175.012 260.746 179.388 262.488 184.184 262.488V258.488C180.447 258.488 176.972 257.158 173.71 254.361L171.106 257.399ZM184.184 262.488C189.169 262.488 193.546 260.644 197.228 257.056L194.436 254.192C191.462 257.089 188.073 258.488 184.184 258.488V262.488ZM197.228 257.056C200.937 253.439 203.687 248.555 205.551 242.518L201.729 241.338C200.009 246.907 197.553 251.153 194.436 254.192L197.228 257.056ZM205.546 242.536C207.497 236.414 208.456 229.505 208.456 221.832H204.456C204.456 229.178 203.537 235.666 201.735 241.32L205.546 242.536ZM208.456 221.832C208.456 214.062 207.409 207.13 205.27 201.07L201.498 202.402C203.455 207.947 204.456 214.413 204.456 221.832H208.456ZM205.27 201.07C203.14 195.035 200.157 190.265 196.238 186.905L193.634 189.943C196.883 192.727 199.532 196.832 201.498 202.402L205.27 201.07ZM196.276 186.939C192.451 183.488 188.103 181.688 183.288 181.688V185.688C187.006 185.688 190.423 187.046 193.596 189.909L196.276 186.939ZM270.456 185.736L270.573 187.733L272.456 187.622V185.736H270.456ZM264.184 186.76L263.441 184.903V184.903L264.184 186.76ZM261.496 189.704L259.61 189.038L259.592 189.089L259.577 189.14L261.496 189.704ZM261.496 254.856L259.599 255.488L259.617 255.544L259.639 255.599L261.496 254.856ZM288.12 252.04L289.565 253.423L289.572 253.416L289.579 253.408L288.12 252.04ZM295.928 232.328V230.328H294.207L293.95 232.029L295.928 232.328ZM298.872 232.328L300.864 232.509L301.062 230.328H298.872V232.328ZM299.384 261L299.292 262.998L301.576 263.103L301.376 260.826L299.384 261ZM231.672 261H229.672V263.059L231.73 262.999L231.672 261ZM231.672 258.44L231.555 256.443L229.672 256.554V258.44H231.672ZM237.944 257.416L238.687 259.273L237.944 257.416ZM240.504 254.472L238.618 253.806L238.6 253.857L238.585 253.908L240.504 254.472ZM240.504 189.704L238.585 190.268L238.6 190.319L238.618 190.37L240.504 189.704ZM237.816 186.76L237.073 188.617L237.093 188.625L237.114 188.633L237.816 186.76ZM231.672 185.736H229.672V187.618L231.551 187.732L231.672 185.736ZM231.672 183.176L231.789 181.179L229.672 181.055V183.176H231.672ZM270.456 183.176H272.456V181.055L270.339 181.179L270.456 183.176ZM270.339 183.739C267.406 183.912 265.04 184.264 263.441 184.903L264.927 188.617C265.888 188.232 267.703 187.901 270.573 187.733L270.339 183.739ZM263.441 184.903C261.561 185.655 260.289 187.115 259.61 189.038L263.382 190.37C263.727 189.392 264.247 188.889 264.927 188.617L263.441 184.903ZM259.577 189.14C259.064 190.884 258.856 193.477 258.856 196.744H262.856C262.856 193.526 263.075 191.425 263.415 190.268L259.577 189.14ZM258.856 196.744V248.968H262.856V196.744H258.856ZM258.856 248.968C258.856 251.663 259.066 253.892 259.599 255.488L263.393 254.224C263.072 253.26 262.856 251.563 262.856 248.968H258.856ZM259.639 255.599C260.322 257.305 261.497 258.624 263.21 259.283L264.646 255.549C264.141 255.355 263.694 254.967 263.353 254.113L259.639 255.599ZM263.21 259.283C264.669 259.844 266.631 260.056 268.92 260.056V256.056C266.772 256.056 265.406 255.842 264.646 255.549L263.21 259.283ZM268.92 260.056H273.912V256.056H268.92V260.056ZM273.912 260.056C280.081 260.056 285.341 257.834 289.565 253.423L286.675 250.657C283.219 254.267 279.007 256.056 273.912 256.056V260.056ZM289.579 253.408C293.821 248.883 296.514 241.843 297.906 232.627L293.95 232.029C292.611 240.904 290.099 247.005 286.661 250.672L289.579 253.408ZM295.928 234.328H298.872V230.328H295.928V234.328ZM296.88 232.147C296.617 235.044 296.488 238.608 296.488 242.824H300.488C300.488 238.677 300.615 235.244 300.864 232.509L296.88 232.147ZM296.488 242.824C296.488 248.187 296.791 254.306 297.392 261.174L301.376 260.826C300.783 254.041 300.488 248.042 300.488 242.824H296.488ZM299.476 259.002C293.879 258.744 284.494 258.616 271.352 258.616V262.616C284.493 262.616 293.796 262.744 299.292 262.998L299.476 259.002ZM271.352 258.616C253.769 258.616 240.519 258.744 231.614 259.001L231.73 262.999C240.575 262.744 253.778 262.616 271.352 262.616V258.616ZM233.672 261V258.44H229.672V261H233.672ZM231.789 260.437C234.722 260.264 237.088 259.912 238.687 259.273L237.201 255.559C236.24 255.944 234.425 256.275 231.555 256.443L231.789 260.437ZM238.687 259.273C240.597 258.509 241.842 257.01 242.423 255.036L238.585 253.908C238.312 254.835 237.851 255.299 237.201 255.559L238.687 259.273ZM242.39 255.138C243.023 253.345 243.272 250.707 243.272 247.432H239.272C239.272 250.642 239.009 252.697 238.618 253.806L242.39 255.138ZM243.272 247.432V196.744H239.272V247.432H243.272ZM243.272 196.744C243.272 193.469 243.023 190.831 242.39 189.038L238.618 190.37C239.009 191.479 239.272 193.534 239.272 196.744H243.272ZM242.423 189.14C241.826 187.112 240.497 185.629 238.518 184.887L237.114 188.633C237.865 188.915 238.328 189.395 238.585 190.268L242.423 189.14ZM238.559 184.903C236.965 184.266 234.648 183.913 231.793 183.74L231.551 187.732C234.328 187.901 236.107 188.23 237.073 188.617L238.559 184.903ZM233.672 185.736V183.176H229.672V185.736H233.672ZM231.555 185.173C235.968 185.432 242.759 185.56 251.896 185.56V181.56C242.772 181.56 236.08 181.432 231.789 181.179L231.555 185.173ZM251.896 185.56C259.93 185.56 266.163 185.432 270.573 185.173L270.339 181.179C266.045 181.432 259.905 181.56 251.896 181.56V185.56ZM268.456 183.176V185.736H272.456V183.176H268.456ZM372.132 183.176H374.132V180.958L371.926 181.187L372.132 183.176ZM372.132 185.736L372.85 187.603L374.132 187.11V185.736H372.132ZM365.988 190.728L367.561 191.964L367.571 191.95L367.581 191.937L365.988 190.728ZM360.1 201.48L358.262 200.692L358.259 200.699L358.256 200.706L360.1 201.48ZM335.012 261.256L334.764 263.241L336.269 263.429L336.856 262.03L335.012 261.256ZM329.124 261.256L327.314 262.106L327.931 263.421L329.372 263.241L329.124 261.256ZM297.508 193.928L295.696 194.775L295.698 194.778L297.508 193.928ZM289.444 185.736H287.444V187.622L289.327 187.733L289.444 185.736ZM289.444 183.176L289.571 181.18L287.444 181.044V183.176H289.444ZM326.436 183.176H328.436V181.055L326.319 181.179L326.436 183.176ZM326.436 185.736L326.557 187.732L328.436 187.618V185.736H326.436ZM320.164 187.144L321.058 188.933L321.102 188.911L321.145 188.887L320.164 187.144ZM319.78 196.488L321.597 195.652L321.59 195.636L321.582 195.62L319.78 196.488ZM340.388 241.288L338.571 242.124L340.45 246.209L342.225 242.078L340.388 241.288ZM353.316 211.208L355.153 211.998L355.158 211.987L355.163 211.976L353.316 211.208ZM347.044 185.736H345.044V187.663L346.97 187.735L347.044 185.736ZM347.044 183.176L347.149 181.179L345.044 181.068V183.176H347.044ZM362.788 185.56C366.581 185.56 369.77 185.431 372.338 185.165L371.926 181.187C369.545 181.433 366.505 181.56 362.788 181.56V185.56ZM370.132 183.176V185.736H374.132V183.176H370.132ZM371.414 183.869C368.757 184.891 366.429 186.837 364.395 189.519L367.581 191.937C369.301 189.669 371.07 188.287 372.85 187.603L371.414 183.869ZM364.415 189.492C362.381 192.082 360.337 195.85 358.262 200.692L361.938 202.268C363.959 197.553 365.841 194.153 367.561 191.964L364.415 189.492ZM358.256 200.706L333.168 260.482L336.856 262.03L361.944 202.254L358.256 200.706ZM335.26 259.271C334.453 259.171 333.373 259.128 332.068 259.128V263.128C333.323 263.128 334.206 263.171 334.764 263.241L335.26 259.271ZM332.068 259.128C330.763 259.128 329.683 259.171 328.876 259.271L329.372 263.241C329.93 263.171 330.813 263.128 332.068 263.128V259.128ZM330.934 260.406L299.318 193.078L295.698 194.778L327.314 262.106L330.934 260.406ZM299.32 193.081C298.031 190.326 296.625 188.098 295.061 186.509C293.483 184.905 291.647 183.862 289.561 183.739L289.327 187.733C290.143 187.781 291.101 188.188 292.211 189.315C293.335 190.457 294.51 192.239 295.696 194.775L299.32 193.081ZM291.444 185.736V183.176H287.444V185.736H291.444ZM289.317 185.172C293.39 185.432 299.029 185.56 306.212 185.56V181.56C299.059 181.56 293.519 181.432 289.571 181.18L289.317 185.172ZM306.212 185.56C315.349 185.56 322.14 185.432 326.553 185.173L326.319 181.179C322.028 181.432 315.336 181.56 306.212 181.56V185.56ZM324.436 183.176V185.736H328.436V183.176H324.436ZM326.315 183.74C323.402 183.916 320.947 184.409 319.183 185.401L321.145 188.887C322.112 188.343 323.838 187.897 326.557 187.732L326.315 183.74ZM319.27 185.355C318.293 185.844 317.471 186.549 316.907 187.5C316.348 188.444 316.116 189.506 316.116 190.6H320.116C320.116 190.072 320.225 189.748 320.349 189.54C320.468 189.339 320.67 189.127 321.058 188.933L319.27 185.355ZM316.116 190.6C316.116 192.646 316.806 194.921 317.978 197.356L321.582 195.62C320.536 193.447 320.116 191.797 320.116 190.6H316.116ZM317.963 197.324L338.571 242.124L342.205 240.452L321.597 195.652L317.963 197.324ZM342.225 242.078L355.153 211.998L351.479 210.418L338.551 240.498L342.225 242.078ZM355.163 211.976C357.926 205.327 359.412 199.787 359.412 195.464H355.412C355.412 198.992 354.167 203.948 351.469 210.44L355.163 211.976ZM359.412 195.464C359.412 191.979 358.435 189.01 356.188 186.901C353.977 184.826 350.839 183.875 347.118 183.737L346.97 187.735C350.161 187.853 352.207 188.651 353.452 189.819C354.661 190.953 355.412 192.72 355.412 195.464H359.412ZM349.044 185.736V183.176H345.044V185.736H349.044ZM346.939 185.173C351.843 185.431 357.126 185.56 362.788 185.56V181.56C357.186 181.56 351.973 181.433 347.149 181.179L346.939 185.173ZM439.454 261L439.362 262.998L441.665 263.104L441.445 260.809L439.454 261ZM371.742 261H369.742V263.059L371.8 262.999L371.742 261ZM371.742 258.44L371.625 256.443L369.742 256.554V258.44H371.742ZM378.014 257.416L378.757 259.273L378.014 257.416ZM380.574 254.472L378.688 253.806L378.67 253.857L378.655 253.908L380.574 254.472ZM380.574 189.704L378.655 190.268L378.67 190.319L378.688 190.37L380.574 189.704ZM377.886 186.76L377.143 188.617L377.163 188.625L377.184 188.633L377.886 186.76ZM371.742 185.736H369.742V187.618L371.621 187.732L371.742 185.736ZM371.742 183.176L371.8 181.177L369.742 181.117V183.176H371.742ZM436.894 183.176L438.883 183.384L439.126 181.06L436.792 181.179L436.894 183.176ZM436.382 206.472V208.472H438.66L438.365 206.213L436.382 206.472ZM433.438 206.472L431.468 206.816L431.757 208.472H433.438V206.472ZM426.782 190.856L425.368 192.27L425.378 192.28L425.387 192.289L426.782 190.856ZM403.998 186.76L404.586 188.672L404.652 188.651L404.716 188.627L403.998 186.76ZM401.566 189.064L399.728 188.276L399.713 188.311L399.699 188.346L401.566 189.064ZM400.926 220.552H398.926V222.552H400.926V220.552ZM415.774 216.456L414.157 215.28L414.15 215.289L415.774 216.456ZM419.87 206.728V204.728H418.208L417.904 206.362L419.87 206.728ZM422.814 206.728L424.806 206.904L424.998 204.728H422.814V206.728ZM423.198 236.936V238.936H425.369L425.191 236.772L423.198 236.936ZM420.254 236.936L418.276 237.231L418.53 238.936H420.254V236.936ZM416.158 227.08L414.577 228.304L414.599 228.333L414.622 228.36L416.158 227.08ZM400.926 223.112V221.112H398.926V223.112H400.926ZM401.566 255.24L399.683 255.913L399.713 255.997L399.75 256.078L401.566 255.24ZM403.998 257.544L403.28 259.411L403.344 259.435L403.41 259.456L403.998 257.544ZM428.702 252.808L427.288 251.394L427.279 251.403L427.27 251.411L428.702 252.808ZM435.998 235.144V233.144H434.301L434.025 234.819L435.998 235.144ZM438.942 235.144L440.931 235.357L441.168 233.144H438.942V235.144ZM436.558 244.36C436.558 249.303 436.861 254.915 437.463 261.191L441.445 260.809C440.852 254.626 440.558 249.145 440.558 244.36H436.558ZM439.546 259.002C433.949 258.744 424.564 258.616 411.422 258.616V262.616C424.563 262.616 433.866 262.744 439.362 262.998L439.546 259.002ZM411.422 258.616C393.839 258.616 380.589 258.744 371.684 259.001L371.8 262.999C380.645 262.744 393.848 262.616 411.422 262.616V258.616ZM373.742 261V258.44H369.742V261H373.742ZM371.859 260.437C374.792 260.264 377.158 259.912 378.757 259.273L377.271 255.559C376.31 255.944 374.495 256.275 371.625 256.443L371.859 260.437ZM378.757 259.273C380.667 258.509 381.912 257.01 382.493 255.036L378.655 253.908C378.382 254.835 377.921 255.299 377.271 255.559L378.757 259.273ZM382.46 255.138C383.093 253.345 383.342 250.707 383.342 247.432H379.342C379.342 250.642 379.079 252.697 378.688 253.806L382.46 255.138ZM383.342 247.432V196.744H379.342V247.432H383.342ZM383.342 196.744C383.342 193.469 383.093 190.831 382.46 189.038L378.688 190.37C379.079 191.479 379.342 193.534 379.342 196.744H383.342ZM382.493 189.14C381.896 187.112 380.567 185.629 378.588 184.887L377.184 188.633C377.935 188.915 378.398 189.395 378.655 190.268L382.493 189.14ZM378.629 184.903C377.035 184.266 374.718 183.913 371.863 183.74L371.621 187.732C374.398 187.901 376.177 188.23 377.143 188.617L378.629 184.903ZM373.742 185.736V183.176H369.742V185.736H373.742ZM371.684 185.175C380.589 185.432 393.839 185.56 411.422 185.56V181.56C393.848 181.56 380.645 181.432 371.8 181.177L371.684 185.175ZM411.422 185.56C423.369 185.56 431.905 185.432 436.996 185.173L436.792 181.179C431.814 181.432 423.368 181.56 411.422 181.56V185.56ZM434.905 182.968C434.302 188.737 433.998 193.928 433.998 198.536H437.998C437.998 194.098 438.291 189.05 438.883 183.384L434.905 182.968ZM433.998 198.536C433.998 201.901 434.127 204.644 434.399 206.731L438.365 206.213C438.125 204.375 437.998 201.827 437.998 198.536H433.998ZM436.382 204.472H433.438V208.472H436.382V204.472ZM435.408 206.128C434.101 198.633 431.781 192.929 428.177 189.423L425.387 192.289C428.098 194.927 430.215 199.634 431.468 206.816L435.408 206.128ZM428.196 189.442C424.578 185.823 419.667 184.12 413.726 184.12V188.12C418.878 188.12 422.672 189.574 425.368 192.27L428.196 189.442ZM413.726 184.12H408.99V188.12H413.726V184.12ZM408.99 184.12C406.701 184.12 404.739 184.332 403.28 184.893L404.716 188.627C405.476 188.334 406.842 188.12 408.99 188.12V184.12ZM403.41 184.848C401.668 185.385 400.44 186.614 399.728 188.276L403.404 189.852C403.716 189.124 404.11 188.818 404.586 188.672L403.41 184.848ZM399.699 188.346C399.132 189.82 398.926 191.927 398.926 194.44H402.926C402.926 192.003 403.146 190.526 403.433 189.782L399.699 188.346ZM398.926 194.44V220.552H402.926V194.44H398.926ZM400.926 222.552H406.942V218.552H400.926V222.552ZM406.942 222.552C411.388 222.552 414.993 220.969 417.398 217.623L414.15 215.289C412.63 217.404 410.347 218.552 406.942 218.552V222.552ZM417.391 217.632C419.627 214.558 421.103 211.034 421.836 207.094L417.904 206.362C417.272 209.76 416.017 212.722 414.157 215.28L417.391 217.632ZM419.87 208.728H422.814V204.728H419.87V208.728ZM420.822 206.552C420.559 209.526 420.43 212.914 420.43 216.712H424.43C424.43 213 424.557 209.733 424.806 206.904L420.822 206.552ZM420.43 216.712V221.832H424.43V216.712H420.43ZM420.43 221.832C420.43 225.75 420.691 230.845 421.205 237.1L425.191 236.772C424.681 230.568 424.43 225.594 424.43 221.832H420.43ZM423.198 234.936H420.254V238.936H423.198V234.936ZM422.232 236.641C421.593 232.347 420.109 228.697 417.694 225.8L414.622 228.36C416.474 230.583 417.721 233.504 418.276 237.231L422.232 236.641ZM417.739 225.856C415.227 222.611 411.503 221.112 406.942 221.112V225.112C410.573 225.112 412.993 226.258 414.577 228.304L417.739 225.856ZM406.942 221.112H400.926V225.112H406.942V221.112ZM398.926 223.112V249.736H402.926V223.112H398.926ZM398.926 249.736C398.926 252.265 399.136 254.383 399.683 255.913L403.449 254.567C403.142 253.708 402.926 252.157 402.926 249.736H398.926ZM399.75 256.078C400.473 257.645 401.67 258.791 403.28 259.411L404.716 255.677C404.107 255.443 403.683 255.053 403.382 254.402L399.75 256.078ZM403.41 259.456C404.812 259.887 406.719 260.056 408.99 260.056V256.056C406.824 256.056 405.403 255.884 404.586 255.632L403.41 259.456ZM408.99 260.056H414.494V256.056H408.99V260.056ZM414.494 260.056C420.954 260.056 426.258 258.177 430.134 254.205L427.27 251.411C424.32 254.436 420.151 256.056 414.494 256.056V260.056ZM430.116 254.222C434.053 250.285 436.581 243.901 437.971 235.469L434.025 234.819C432.685 242.941 430.348 248.333 427.288 251.394L430.116 254.222ZM435.998 237.144H438.942V233.144H435.998V237.144ZM436.953 234.931C436.687 237.419 436.558 240.569 436.558 244.36H440.558C440.558 240.642 440.685 237.648 440.931 235.357L436.953 234.931ZM518.222 192.904L516.906 194.41L516.916 194.419L518.222 192.904ZM523.982 242.184L525.697 243.213L525.703 243.202L523.982 242.184ZM508.238 256.136L509.087 257.947L509.097 257.942L509.106 257.938L508.238 256.136ZM483.534 261L483.503 263L483.518 263H483.534V261ZM475.342 260.872L475.28 262.871L475.295 262.872L475.311 262.872L475.342 260.872ZM445.902 261H443.902V263.132L446.029 262.996L445.902 261ZM445.902 258.44L445.785 256.443L443.902 256.554V258.44H445.902ZM452.174 257.416L452.917 259.273L452.174 257.416ZM454.734 254.472L452.848 253.806L452.83 253.857L452.815 253.908L454.734 254.472ZM454.734 189.704L452.815 190.268L452.83 190.319L452.848 190.37L454.734 189.704ZM452.174 186.76L452.917 184.903V184.903L452.174 186.76ZM445.902 185.736H443.902V187.622L445.785 187.733L445.902 185.736ZM445.902 183.176L446.059 181.182L443.902 181.012V183.176H445.902ZM459.598 183.56V185.56H459.608L459.619 185.56L459.598 183.56ZM471.886 183.432L471.907 185.432L471.923 185.432L471.94 185.431L471.886 183.432ZM478.03 186.376L478.978 188.137L478.03 186.376ZM475.726 254.6L473.799 255.135L475.726 254.6ZM478.03 257.8L478.978 256.039L478.03 257.8ZM498.638 254.6L499.814 256.217L499.826 256.209L499.838 256.2L498.638 254.6ZM506.574 242.312L504.651 241.763L506.574 242.312ZM502.99 194.184L501.333 195.305L502.99 194.184ZM484.686 185.176C499.376 185.176 509.994 188.372 516.906 194.41L519.538 191.398C511.602 184.465 499.863 181.176 484.686 181.176V185.176ZM516.916 194.419C523.788 200.343 527.358 209.108 527.358 221.064H531.358C531.358 208.273 527.504 198.265 519.528 191.389L516.916 194.419ZM527.358 221.064C527.358 228.778 525.638 235.456 522.261 241.166L525.703 243.202C529.494 236.794 531.358 229.393 531.358 221.064H527.358ZM522.267 241.155C518.904 246.76 513.968 251.158 507.37 254.334L509.106 257.938C516.332 254.458 521.892 249.555 525.697 243.213L522.267 241.155ZM507.389 254.325C500.801 257.416 492.87 259 483.534 259V263C493.313 263 501.851 261.341 509.087 257.947L507.389 254.325ZM483.565 259L475.373 258.872L475.311 262.872L483.503 263L483.565 259ZM475.404 258.873C469.94 258.702 465.903 258.616 463.31 258.616V262.616C465.837 262.616 469.821 262.7 475.28 262.871L475.404 258.873ZM463.31 258.616C455.703 258.616 449.85 258.744 445.775 259.004L446.029 262.996C449.976 262.744 455.728 262.616 463.31 262.616V258.616ZM447.902 261V258.44H443.902V261H447.902ZM446.019 260.437C448.952 260.264 451.318 259.912 452.917 259.273L451.431 255.559C450.47 255.944 448.655 256.275 445.785 256.443L446.019 260.437ZM452.917 259.273C454.827 258.509 456.072 257.01 456.653 255.036L452.815 253.908C452.542 254.835 452.081 255.299 451.431 255.559L452.917 259.273ZM456.62 255.138C457.253 253.345 457.502 250.707 457.502 247.432H453.502C453.502 250.642 453.239 252.697 452.848 253.806L456.62 255.138ZM457.502 247.432V196.744H453.502V247.432H457.502ZM457.502 196.744C457.502 193.469 457.253 190.831 456.62 189.038L452.848 190.37C453.239 191.479 453.502 193.534 453.502 196.744H457.502ZM456.653 189.14C456.072 187.166 454.827 185.667 452.917 184.903L451.431 188.617C452.081 188.877 452.542 189.341 452.815 190.268L456.653 189.14ZM452.917 184.903C451.318 184.264 448.952 183.912 446.019 183.739L445.785 187.733C448.655 187.901 450.47 188.232 451.431 188.617L452.917 184.903ZM447.902 185.736V183.176H443.902V185.736H447.902ZM445.745 185.17C449.065 185.432 453.692 185.56 459.598 185.56V181.56C453.728 181.56 449.224 181.432 446.059 181.182L445.745 185.17ZM459.619 185.56L471.907 185.432L471.865 181.432L459.577 181.56L459.619 185.56ZM471.94 185.431C478.258 185.261 482.498 185.176 484.686 185.176V181.176C482.436 181.176 478.143 181.262 471.832 181.433L471.94 185.431ZM483.022 183.48C480.689 183.48 478.627 183.783 477.082 184.615L478.978 188.137C479.651 187.774 480.917 187.48 483.022 187.48V183.48ZM477.082 184.615C475.373 185.535 474.33 187.127 473.799 189.041L477.653 190.111C477.975 188.953 478.468 188.412 478.978 188.137L477.082 184.615ZM473.799 189.041C473.298 190.845 473.086 193.37 473.086 196.488H477.086C477.086 193.462 477.301 191.379 477.653 190.111L473.799 189.041ZM473.086 196.488V247.688H477.086V196.488H473.086ZM473.086 247.688C473.086 250.806 473.298 253.331 473.799 255.135L477.653 254.065C477.301 252.797 477.086 250.714 477.086 247.688H473.086ZM473.799 255.135C474.33 257.049 475.373 258.641 477.082 259.561L478.978 256.039C478.468 255.764 477.975 255.223 477.653 254.065L473.799 255.135ZM477.082 259.561C478.635 260.397 480.747 260.696 483.15 260.696V256.696C480.945 256.696 479.644 256.397 478.978 256.039L477.082 259.561ZM483.15 260.696C489.973 260.696 495.602 259.281 499.814 256.217L497.462 252.983C494.165 255.38 489.468 256.696 483.15 256.696V260.696ZM499.838 256.2C504.005 253.075 506.865 248.574 508.497 242.861L504.651 241.763C503.211 246.802 500.78 250.493 497.438 253L499.838 256.2ZM508.497 242.861C510.103 237.241 510.878 230.125 510.878 221.576H506.878C506.878 229.923 506.117 236.631 504.651 241.763L508.497 242.861ZM510.878 221.576C510.878 208.99 508.911 199.367 504.647 193.063L501.333 195.305C504.92 200.606 506.878 209.245 506.878 221.576H510.878ZM504.647 193.063C500.229 186.532 492.824 183.48 483.022 183.48V187.48C491.994 187.48 497.901 190.23 501.333 195.305L504.647 193.063ZM560.394 198.92L558.458 198.418L558.449 198.452L558.442 198.486L560.394 198.92ZM557.578 209.672L559.495 210.241L559.5 210.227L559.504 210.213L557.578 209.672ZM553.738 223.88L555.683 224.345L555.685 224.336L553.738 223.88ZM551.946 235.912V237.912H553.825L553.942 236.037L551.946 235.912ZM549.642 235.912L547.646 236.037L547.763 237.912H549.642V235.912ZM547.85 223.88L545.903 224.336L545.905 224.345L547.85 223.88ZM544.01 209.672L542.084 210.213L542.088 210.227L542.093 210.241L544.01 209.672ZM541.066 198.92L539.114 199.354L539.121 199.388L539.13 199.422L541.066 198.92ZM558.858 245.768L557.509 247.245L557.527 247.261L557.546 247.277L558.858 245.768ZM558.858 260.232L560.17 261.741L560.189 261.725L560.207 261.709L558.858 260.232ZM542.986 260.232L541.637 261.709L541.655 261.725L541.674 261.741L542.986 260.232ZM542.986 245.768L544.298 247.277L544.317 247.261L544.335 247.245L542.986 245.768ZM550.794 183.384C553.193 183.384 555.168 184.175 556.834 185.772L559.602 182.884C557.172 180.556 554.198 179.384 550.794 179.384V183.384ZM556.834 185.772C558.41 187.282 559.29 189.405 559.29 192.392H563.29C563.29 188.553 562.122 185.299 559.602 182.884L556.834 185.772ZM559.29 192.392C559.29 194.246 559.02 196.252 558.458 198.418L562.33 199.422C562.963 196.98 563.29 194.634 563.29 192.392H559.29ZM558.442 198.486C557.942 200.733 557.016 204.272 555.652 209.131L559.504 210.213C560.87 205.344 561.822 201.715 562.346 199.354L558.442 198.486ZM555.661 209.103C554.032 214.589 552.741 219.364 551.791 223.424L555.685 224.336C556.612 220.374 557.881 215.678 559.495 210.241L555.661 209.103ZM551.793 223.415C550.827 227.454 550.213 231.578 549.95 235.787L553.942 236.037C554.191 232.054 554.772 228.157 555.683 224.345L551.793 223.415ZM551.946 233.912H549.642V237.912H551.946V233.912ZM551.638 235.787C551.375 231.578 550.761 227.454 549.795 223.415L545.905 224.345C546.816 228.157 547.397 232.054 547.646 236.037L551.638 235.787ZM549.797 223.424C548.847 219.364 547.556 214.589 545.927 209.103L542.093 210.241C543.707 215.678 544.975 220.374 545.903 224.336L549.797 223.424ZM545.936 209.131C544.571 204.269 543.594 200.702 543.002 198.418L539.13 199.422C539.733 201.746 540.719 205.347 542.084 210.213L545.936 209.131ZM543.018 198.486C542.533 196.304 542.298 194.274 542.298 192.392H538.298C538.298 194.606 538.575 196.928 539.114 199.354L543.018 198.486ZM542.298 192.392C542.298 189.38 543.151 187.247 544.656 185.742L541.828 182.914C539.408 185.334 538.298 188.578 538.298 192.392H542.298ZM544.656 185.742C546.202 184.196 548.19 183.384 550.794 183.384V179.384C547.254 179.384 544.207 180.534 541.828 182.914L544.656 185.742ZM550.922 245.08C553.882 245.08 556.002 245.868 557.509 247.245L560.207 244.291C557.789 242.084 554.618 241.08 550.922 241.08V245.08ZM557.546 247.277C558.991 248.534 559.802 250.327 559.802 252.936H563.802C563.802 249.401 562.65 246.415 560.17 244.259L557.546 247.277ZM559.802 252.936C559.802 255.542 558.991 257.402 557.509 258.755L560.207 261.709C562.65 259.478 563.802 256.474 563.802 252.936H559.802ZM557.546 258.723C556.039 260.033 553.906 260.792 550.922 260.792V264.792C554.594 264.792 557.751 263.845 560.17 261.741L557.546 258.723ZM550.922 260.792C547.938 260.792 545.805 260.033 544.298 258.723L541.674 261.741C544.093 263.845 547.25 264.792 550.922 264.792V260.792ZM544.335 258.755C542.853 257.402 542.042 255.542 542.042 252.936H538.042C538.042 256.474 539.194 259.478 541.637 261.709L544.335 258.755ZM542.042 252.936C542.042 250.327 542.853 248.534 544.298 247.277L541.674 244.259C539.194 246.415 538.042 249.401 538.042 252.936H542.042ZM544.335 247.245C545.842 245.868 547.962 245.08 550.922 245.08V241.08C547.226 241.08 544.055 242.084 541.637 244.291L544.335 247.245Z" fill="black" mask="url(#path-1-outside-1_178_2848)"/>
<mask id="path-3-outside-2_178_2848" maskUnits="userSpaceOnUse" x="3" y="67" width="286" height="109" fill="black">
<rect fill="white" x="3" y="67" width="286" height="109"/>
<path d="M107.392 153.864C105.685 160.093 102.528 164.829 97.92 168.072C93.312 171.4 87.424 173.064 80.256 173.064C74.1973 173.064 68.2667 172.253 62.464 170.632C56.7467 169.011 49.536 166.536 40.832 163.208C35.712 161.245 31.5307 159.709 28.288 158.6C26.6667 159.453 24.8747 160.093 22.912 160.52C21.0347 161.032 19.2427 161.288 17.536 161.288C15.744 161.288 14.2933 160.989 13.184 160.392C12.0747 159.88 11.52 159.069 11.52 157.96C11.52 155.656 13.8667 154.504 18.56 154.504C21.7173 154.504 24.96 155.101 28.288 156.296C30.848 155.613 34.0907 154.419 38.016 152.712C40.2347 151.688 41.984 150.963 43.264 150.536C31.5733 149.597 22.3573 145.672 15.616 138.76C8.87467 131.848 5.504 122.547 5.504 110.856C5.504 102.664 7.33867 95.4533 11.008 89.224C14.6773 82.9093 19.7973 78.0453 26.368 74.632C32.9387 71.1333 40.4053 69.384 48.768 69.384C57.3867 69.384 64.9387 70.9627 71.424 74.12C77.9093 77.192 82.944 81.7573 86.528 87.816C90.112 93.7893 91.904 100.957 91.904 109.32C91.904 117.085 90.24 123.997 86.912 130.056C83.584 136.115 78.9333 140.936 72.96 144.52C67.072 148.104 60.2453 150.152 52.48 150.664C50.432 150.835 48.5973 151.176 46.976 151.688C45.3547 152.285 43.3067 153.096 40.832 154.12C37.3333 155.656 34.3893 156.68 32 157.192C32.6827 157.277 33.8773 157.32 35.584 157.32C37.12 157.32 39.936 157.235 44.032 157.064C47.104 156.808 50.176 156.68 53.248 156.68C58.368 156.68 64.8533 157.363 72.704 158.728C79.0187 159.837 83.9253 160.392 87.424 160.392C92.544 160.392 96.4267 159.795 99.072 158.6C101.803 157.491 103.936 155.613 105.472 152.968L107.392 153.864ZM25.984 110.344C25.984 117.939 27.008 124.637 29.056 130.44C31.104 136.243 33.8773 140.723 37.376 143.88C40.96 146.952 44.8853 148.488 49.152 148.488C53.5893 148.488 57.472 146.867 60.8 143.624C64.2133 140.296 66.816 135.731 68.608 129.928C70.4853 124.04 71.424 117.341 71.424 109.832C71.424 102.237 70.4 95.5387 68.352 89.736C66.304 83.9333 63.488 79.496 59.904 76.424C56.4053 73.2667 52.5227 71.688 48.256 71.688C43.8187 71.688 39.8933 73.352 36.48 76.68C33.152 79.9227 30.5493 84.488 28.672 90.376C26.88 96.1787 25.984 102.835 25.984 110.344ZM176.497 73.736C173.51 74.1627 171.292 74.888 169.841 75.912C168.39 76.936 167.409 78.5573 166.897 80.776C166.385 82.9947 166.129 86.28 166.129 90.632V114.312C166.129 120.2 165.702 125.235 164.849 129.416C164.081 133.512 162.758 137.096 160.881 140.168C158.833 143.411 155.761 146.013 151.665 147.976C147.654 149.853 143.089 150.792 137.969 150.792C128.326 150.792 120.817 148.915 115.441 145.16C112.454 142.941 110.193 140.552 108.657 137.992C107.121 135.432 106.012 132.36 105.329 128.776C104.732 125.107 104.433 120.413 104.433 114.696V84.744C104.433 81.5013 104.177 79.1547 103.665 77.704C103.238 76.2533 102.342 75.272 100.977 74.76C99.697 74.248 97.649 73.9067 94.833 73.736V71.176C99.0997 71.432 105.585 71.56 114.289 71.56C122.566 71.56 129.009 71.432 133.617 71.176V73.736C130.716 73.9067 128.625 74.248 127.345 74.76C126.065 75.272 125.169 76.2533 124.657 77.704C124.23 79.1547 124.017 81.5013 124.017 84.744V116.872C124.017 123.016 124.401 128.093 125.169 132.104C126.022 136.115 127.772 139.357 130.417 141.832C133.062 144.307 136.988 145.544 142.193 145.544C149.958 145.544 155.377 142.941 158.449 137.736C161.606 132.445 163.185 125.107 163.185 115.72V92.168C163.185 87.2187 162.886 83.5493 162.289 81.16C161.692 78.7707 160.54 77.064 158.833 76.04C157.126 74.9307 154.438 74.1627 150.769 73.736V71.176C154.097 71.432 158.705 71.56 164.593 71.56C169.713 71.56 173.681 71.432 176.497 71.176V73.736ZM217.331 73.736C214.43 73.9067 212.339 74.248 211.059 74.76C209.779 75.272 208.883 76.2533 208.371 77.704C207.944 79.1547 207.731 81.5013 207.731 84.744V135.432C207.731 138.675 207.944 141.021 208.371 142.472C208.883 143.923 209.779 144.904 211.059 145.416C212.339 145.928 214.43 146.269 217.331 146.44V149C212.979 148.744 206.664 148.616 198.387 148.616C189.427 148.616 182.814 148.744 178.547 149V146.44C181.448 146.269 183.539 145.928 184.819 145.416C186.099 144.904 186.952 143.923 187.379 142.472C187.891 141.021 188.147 138.675 188.147 135.432V84.744C188.147 81.5013 187.891 79.1547 187.379 77.704C186.952 76.2533 186.056 75.272 184.691 74.76C183.411 74.248 181.363 73.9067 178.547 73.736V71.176C182.728 71.432 189.342 71.56 198.387 71.56C206.664 71.56 212.979 71.432 217.331 71.176V73.736ZM285.311 73.736L245.119 146.056H258.687C265.428 146.056 270.676 144.093 274.431 140.168C278.271 136.157 280.959 129.459 282.495 120.072H285.439C285.183 123.229 285.055 127.24 285.055 132.104C285.055 137.053 285.354 142.685 285.951 149C280.063 148.744 269.994 148.616 255.743 148.616C241.066 148.616 230.356 148.744 223.615 149V146.44L263.807 74.12H250.367C243.882 74.12 238.804 75.9973 235.135 79.752C231.466 83.4213 228.863 89.6933 227.327 98.568H224.383C224.639 95.8373 224.767 92.0827 224.767 87.304C224.767 82.5253 224.468 77.1493 223.871 71.176C230.271 71.432 240.98 71.56 255.999 71.56C269.482 71.56 279.252 71.432 285.311 71.176V73.736Z"/>
</mask>
<path d="M107.392 153.864C105.685 160.093 102.528 164.829 97.92 168.072C93.312 171.4 87.424 173.064 80.256 173.064C74.1973 173.064 68.2667 172.253 62.464 170.632C56.7467 169.011 49.536 166.536 40.832 163.208C35.712 161.245 31.5307 159.709 28.288 158.6C26.6667 159.453 24.8747 160.093 22.912 160.52C21.0347 161.032 19.2427 161.288 17.536 161.288C15.744 161.288 14.2933 160.989 13.184 160.392C12.0747 159.88 11.52 159.069 11.52 157.96C11.52 155.656 13.8667 154.504 18.56 154.504C21.7173 154.504 24.96 155.101 28.288 156.296C30.848 155.613 34.0907 154.419 38.016 152.712C40.2347 151.688 41.984 150.963 43.264 150.536C31.5733 149.597 22.3573 145.672 15.616 138.76C8.87467 131.848 5.504 122.547 5.504 110.856C5.504 102.664 7.33867 95.4533 11.008 89.224C14.6773 82.9093 19.7973 78.0453 26.368 74.632C32.9387 71.1333 40.4053 69.384 48.768 69.384C57.3867 69.384 64.9387 70.9627 71.424 74.12C77.9093 77.192 82.944 81.7573 86.528 87.816C90.112 93.7893 91.904 100.957 91.904 109.32C91.904 117.085 90.24 123.997 86.912 130.056C83.584 136.115 78.9333 140.936 72.96 144.52C67.072 148.104 60.2453 150.152 52.48 150.664C50.432 150.835 48.5973 151.176 46.976 151.688C45.3547 152.285 43.3067 153.096 40.832 154.12C37.3333 155.656 34.3893 156.68 32 157.192C32.6827 157.277 33.8773 157.32 35.584 157.32C37.12 157.32 39.936 157.235 44.032 157.064C47.104 156.808 50.176 156.68 53.248 156.68C58.368 156.68 64.8533 157.363 72.704 158.728C79.0187 159.837 83.9253 160.392 87.424 160.392C92.544 160.392 96.4267 159.795 99.072 158.6C101.803 157.491 103.936 155.613 105.472 152.968L107.392 153.864ZM25.984 110.344C25.984 117.939 27.008 124.637 29.056 130.44C31.104 136.243 33.8773 140.723 37.376 143.88C40.96 146.952 44.8853 148.488 49.152 148.488C53.5893 148.488 57.472 146.867 60.8 143.624C64.2133 140.296 66.816 135.731 68.608 129.928C70.4853 124.04 71.424 117.341 71.424 109.832C71.424 102.237 70.4 95.5387 68.352 89.736C66.304 83.9333 63.488 79.496 59.904 76.424C56.4053 73.2667 52.5227 71.688 48.256 71.688C43.8187 71.688 39.8933 73.352 36.48 76.68C33.152 79.9227 30.5493 84.488 28.672 90.376C26.88 96.1787 25.984 102.835 25.984 110.344ZM176.497 73.736C173.51 74.1627 171.292 74.888 169.841 75.912C168.39 76.936 167.409 78.5573 166.897 80.776C166.385 82.9947 166.129 86.28 166.129 90.632V114.312C166.129 120.2 165.702 125.235 164.849 129.416C164.081 133.512 162.758 137.096 160.881 140.168C158.833 143.411 155.761 146.013 151.665 147.976C147.654 149.853 143.089 150.792 137.969 150.792C128.326 150.792 120.817 148.915 115.441 145.16C112.454 142.941 110.193 140.552 108.657 137.992C107.121 135.432 106.012 132.36 105.329 128.776C104.732 125.107 104.433 120.413 104.433 114.696V84.744C104.433 81.5013 104.177 79.1547 103.665 77.704C103.238 76.2533 102.342 75.272 100.977 74.76C99.697 74.248 97.649 73.9067 94.833 73.736V71.176C99.0997 71.432 105.585 71.56 114.289 71.56C122.566 71.56 129.009 71.432 133.617 71.176V73.736C130.716 73.9067 128.625 74.248 127.345 74.76C126.065 75.272 125.169 76.2533 124.657 77.704C124.23 79.1547 124.017 81.5013 124.017 84.744V116.872C124.017 123.016 124.401 128.093 125.169 132.104C126.022 136.115 127.772 139.357 130.417 141.832C133.062 144.307 136.988 145.544 142.193 145.544C149.958 145.544 155.377 142.941 158.449 137.736C161.606 132.445 163.185 125.107 163.185 115.72V92.168C163.185 87.2187 162.886 83.5493 162.289 81.16C161.692 78.7707 160.54 77.064 158.833 76.04C157.126 74.9307 154.438 74.1627 150.769 73.736V71.176C154.097 71.432 158.705 71.56 164.593 71.56C169.713 71.56 173.681 71.432 176.497 71.176V73.736ZM217.331 73.736C214.43 73.9067 212.339 74.248 211.059 74.76C209.779 75.272 208.883 76.2533 208.371 77.704C207.944 79.1547 207.731 81.5013 207.731 84.744V135.432C207.731 138.675 207.944 141.021 208.371 142.472C208.883 143.923 209.779 144.904 211.059 145.416C212.339 145.928 214.43 146.269 217.331 146.44V149C212.979 148.744 206.664 148.616 198.387 148.616C189.427 148.616 182.814 148.744 178.547 149V146.44C181.448 146.269 183.539 145.928 184.819 145.416C186.099 144.904 186.952 143.923 187.379 142.472C187.891 141.021 188.147 138.675 188.147 135.432V84.744C188.147 81.5013 187.891 79.1547 187.379 77.704C186.952 76.2533 186.056 75.272 184.691 74.76C183.411 74.248 181.363 73.9067 178.547 73.736V71.176C182.728 71.432 189.342 71.56 198.387 71.56C206.664 71.56 212.979 71.432 217.331 71.176V73.736ZM285.311 73.736L245.119 146.056H258.687C265.428 146.056 270.676 144.093 274.431 140.168C278.271 136.157 280.959 129.459 282.495 120.072H285.439C285.183 123.229 285.055 127.24 285.055 132.104C285.055 137.053 285.354 142.685 285.951 149C280.063 148.744 269.994 148.616 255.743 148.616C241.066 148.616 230.356 148.744 223.615 149V146.44L263.807 74.12H250.367C243.882 74.12 238.804 75.9973 235.135 79.752C231.466 83.4213 228.863 89.6933 227.327 98.568H224.383C224.639 95.8373 224.767 92.0827 224.767 87.304C224.767 82.5253 224.468 77.1493 223.871 71.176C230.271 71.432 240.98 71.56 255.999 71.56C269.482 71.56 279.252 71.432 285.311 71.176V73.736Z" fill="url(#paint1_linear_178_2848)"/>
<path d="M107.392 153.864L109.321 154.392L109.767 152.765L108.238 152.052L107.392 153.864ZM97.92 168.072L96.769 166.436L96.759 166.443L96.749 166.451L97.92 168.072ZM62.464 170.632L61.9184 172.556L61.9258 172.558L62.464 170.632ZM40.832 163.208L40.1161 165.076L40.1177 165.076L40.832 163.208ZM28.288 158.6L28.9354 156.708L28.1195 156.429L27.3565 156.83L28.288 158.6ZM22.912 160.52L22.4871 158.566L22.4361 158.577L22.3858 158.59L22.912 160.52ZM13.184 160.392L14.1322 158.631L14.078 158.602L14.0221 158.576L13.184 160.392ZM28.288 156.296L27.6123 158.178L28.2 158.389L28.8033 158.228L28.288 156.296ZM38.016 152.712L38.8135 154.546L38.8339 154.537L38.8541 154.528L38.016 152.712ZM43.264 150.536L43.8965 152.433L43.4241 148.542L43.264 150.536ZM15.616 138.76L17.0478 137.364L15.616 138.76ZM11.008 89.224L12.7313 90.2391L12.7373 90.2288L11.008 89.224ZM26.368 74.632L27.29 76.4068L27.299 76.4021L27.308 76.3973L26.368 74.632ZM71.424 74.12L70.5486 75.9182L70.5582 75.9229L70.5678 75.9275L71.424 74.12ZM86.528 87.816L84.8066 88.8343L84.813 88.845L86.528 87.816ZM86.912 130.056L85.159 129.093L86.912 130.056ZM72.96 144.52L71.931 142.805L71.9201 142.812L72.96 144.52ZM52.48 150.664L52.3484 148.668L52.3312 148.669L52.3139 148.671L52.48 150.664ZM46.976 151.688L46.3737 149.781L46.3288 149.795L46.2846 149.811L46.976 151.688ZM40.832 154.12L40.0673 152.272L40.0476 152.28L40.028 152.289L40.832 154.12ZM32 157.192L31.5809 155.236L31.7519 159.177L32 157.192ZM44.032 157.064L44.1153 159.062L44.1567 159.061L44.1981 159.057L44.032 157.064ZM72.704 158.728L73.0501 156.758L73.0467 156.758L72.704 158.728ZM99.072 158.6L98.3193 156.747L98.2838 156.761L98.2488 156.777L99.072 158.6ZM105.472 152.968L106.318 151.156L104.661 150.382L103.742 151.964L105.472 152.968ZM37.376 143.88L36.0361 145.365L36.055 145.382L36.0744 145.399L37.376 143.88ZM60.8 143.624L62.1957 145.056L62.1962 145.056L60.8 143.624ZM68.608 129.928L66.7025 129.32L66.6997 129.329L66.6971 129.338L68.608 129.928ZM68.352 89.736L70.238 89.0704L68.352 89.736ZM59.904 76.424L58.5641 77.9088L58.583 77.9259L58.6024 77.9425L59.904 76.424ZM36.48 76.68L37.8757 78.1125L37.8762 78.112L36.48 76.68ZM28.672 90.376L26.7665 89.7684L26.7637 89.7771L26.7611 89.7859L28.672 90.376ZM105.463 153.336C103.86 159.186 100.942 163.5 96.769 166.436L99.071 169.708C104.114 166.159 107.51 161.001 109.321 154.392L105.463 153.336ZM96.749 166.451C92.5617 169.475 87.1142 171.064 80.256 171.064V175.064C87.7338 175.064 94.0623 173.325 99.091 169.693L96.749 166.451ZM80.256 171.064C74.3782 171.064 68.6287 170.278 63.0022 168.706L61.9258 172.558C67.9047 174.229 74.0164 175.064 80.256 175.064V171.064ZM63.0097 168.708C57.3718 167.109 50.2222 164.657 41.5463 161.34L40.1177 165.076C48.8498 168.415 56.1215 170.912 61.9184 172.556L63.0097 168.708ZM41.5479 161.341C36.4169 159.374 32.2104 157.828 28.9354 156.708L27.6406 160.492C30.8509 161.591 35.0071 163.117 40.1161 165.076L41.5479 161.341ZM27.3565 156.83C25.9095 157.592 24.2902 158.174 22.4871 158.566L23.3369 162.474C25.4592 162.013 27.4239 161.315 29.2195 160.37L27.3565 156.83ZM22.3858 158.59C20.6564 159.062 19.0421 159.288 17.536 159.288V163.288C19.4433 163.288 21.4129 163.002 23.4382 162.45L22.3858 158.59ZM17.536 159.288C15.9437 159.288 14.8531 159.019 14.1322 158.631L12.2358 162.153C13.7336 162.959 15.5443 163.288 17.536 163.288V159.288ZM14.0221 158.576C13.7159 158.435 13.6158 158.313 13.5866 158.271C13.5656 158.24 13.52 158.166 13.52 157.96H9.52C9.52 158.864 9.75173 159.749 10.2854 160.529C10.8109 161.297 11.5427 161.837 12.3459 162.208L14.0221 158.576ZM13.52 157.96C13.52 157.742 13.5694 157.638 13.6146 157.572C13.6696 157.491 13.809 157.336 14.1613 157.163C14.9214 156.79 16.3128 156.504 18.56 156.504V152.504C16.1139 152.504 13.9853 152.794 12.3987 153.573C11.5776 153.976 10.8371 154.541 10.3054 155.324C9.76396 156.122 9.52 157.026 9.52 157.96H13.52ZM18.56 156.504C21.4611 156.504 24.4753 157.052 27.6123 158.178L28.9637 154.414C25.4447 153.15 21.9736 152.504 18.56 152.504V156.504ZM28.8033 158.228C31.4999 157.509 34.845 156.272 38.8135 154.546L37.2186 150.878C33.3364 152.566 30.1961 153.717 27.7727 154.364L28.8033 158.228ZM38.8541 154.528C41.0501 153.514 42.7211 152.825 43.8965 152.433L42.6315 148.639C41.2469 149.1 39.4192 149.862 37.1779 150.896L38.8541 154.528ZM43.4241 148.542C32.1074 147.634 23.3826 143.859 17.0478 137.364L14.1842 140.156C21.3321 147.485 31.0393 151.561 43.1039 152.53L43.4241 148.542ZM17.0478 137.364C10.745 130.901 7.504 122.142 7.504 110.856H3.504C3.504 122.951 7.00435 132.795 14.1842 140.156L17.0478 137.364ZM7.504 110.856C7.504 102.973 9.26623 96.1216 12.7313 90.2391L9.28474 88.2089C5.4111 94.7851 3.504 102.355 3.504 110.856H7.504ZM12.7373 90.2288C16.2132 84.247 21.0511 79.6478 27.29 76.4068L25.446 72.8572C18.5436 76.4429 13.1415 81.5717 9.27875 88.2192L12.7373 90.2288ZM27.308 76.3973C33.5551 73.0709 40.6921 71.384 48.768 71.384V67.384C40.1185 67.384 32.3222 69.1957 25.428 72.8667L27.308 76.3973ZM48.768 71.384C57.1418 71.384 64.3841 72.9171 70.5486 75.9182L72.2995 72.3218C65.4933 69.0082 57.6315 67.384 48.768 67.384V71.384ZM70.5678 75.9275C76.6999 78.8322 81.43 83.1261 84.8066 88.8343L88.2494 86.7977C84.458 80.3885 79.1187 75.5518 72.2802 72.3125L70.5678 75.9275ZM84.813 88.845C88.1762 94.4504 89.904 101.247 89.904 109.32H93.904C93.904 100.668 92.0478 93.1283 88.243 86.787L84.813 88.845ZM89.904 109.32C89.904 116.791 88.3058 123.364 85.159 129.093L88.665 131.019C92.1742 124.63 93.904 117.38 93.904 109.32H89.904ZM85.159 129.093C82.0029 134.839 77.6032 139.402 71.931 142.805L73.989 146.235C80.2635 142.47 85.1651 137.39 88.665 131.019L85.159 129.093ZM71.9201 142.812C66.3411 146.208 59.8342 148.175 52.3484 148.668L52.6116 152.66C60.6565 152.129 67.8029 150 73.9999 146.228L71.9201 142.812ZM52.3139 148.671C50.1474 148.851 48.1626 149.216 46.3737 149.781L47.5783 153.595C49.0321 153.136 50.7166 152.818 52.6461 152.657L52.3139 148.671ZM46.2846 149.811C44.6292 150.421 42.5546 151.243 40.0673 152.272L41.5967 155.968C44.0587 154.949 46.0802 154.149 47.6674 153.565L46.2846 149.811ZM40.028 152.289C36.5923 153.797 33.786 154.764 31.5809 155.236L32.4191 159.148C34.9927 158.596 38.0744 157.515 41.636 155.951L40.028 152.289ZM31.7519 159.177C32.5722 159.279 33.8802 159.32 35.584 159.32V155.32C33.8745 155.32 32.7932 155.276 32.2481 155.207L31.7519 159.177ZM35.584 159.32C37.1673 159.32 40.0225 159.233 44.1153 159.062L43.9487 155.066C39.8495 155.237 37.0727 155.32 35.584 155.32V159.32ZM44.1981 159.057C47.215 158.806 50.2316 158.68 53.248 158.68V154.68C50.1204 154.68 46.993 154.81 43.8659 155.071L44.1981 159.057ZM53.248 158.68C58.2083 158.68 64.5689 159.343 72.3613 160.698L73.0467 156.758C65.1378 155.382 58.5277 154.68 53.248 154.68V158.68ZM72.3579 160.698C78.7094 161.814 83.7508 162.392 87.424 162.392V158.392C84.0998 158.392 79.3279 157.861 73.0501 156.758L72.3579 160.698ZM87.424 162.392C92.6434 162.392 96.8638 161.792 99.8952 160.423L98.2488 156.777C95.9895 157.798 92.4446 158.392 87.424 158.392V162.392ZM99.8248 160.453C102.983 159.17 105.452 156.985 107.202 153.972L103.742 151.964C102.42 154.241 100.623 155.811 98.3193 156.747L99.8248 160.453ZM104.626 154.78L106.546 155.676L108.238 152.052L106.318 151.156L104.626 154.78ZM23.984 110.344C23.984 118.114 25.0312 125.046 27.17 131.106L30.942 129.774C28.9848 124.229 27.984 117.763 27.984 110.344H23.984ZM27.17 131.106C29.2961 137.13 32.2258 141.926 36.0361 145.365L38.7159 142.395C35.5289 139.519 32.9119 135.356 30.942 129.774L27.17 131.106ZM36.0744 145.399C39.9796 148.746 44.3562 150.488 49.152 150.488V146.488C45.4145 146.488 41.9404 145.158 38.6776 142.361L36.0744 145.399ZM49.152 150.488C54.1374 150.488 58.5138 148.644 62.1957 145.056L59.4043 142.192C56.4302 145.089 53.0412 146.488 49.152 146.488V150.488ZM62.1962 145.056C65.9055 141.439 68.6548 136.555 70.519 130.518L66.6971 129.338C64.9772 134.907 62.5212 139.153 59.4038 142.192L62.1962 145.056ZM70.5135 130.536C72.4652 124.414 73.424 117.505 73.424 109.832H69.424C69.424 117.178 68.5054 123.666 66.7025 129.32L70.5135 130.536ZM73.424 109.832C73.424 102.062 72.3768 95.1302 70.238 89.0704L66.466 90.4016C68.4232 95.9471 69.424 102.413 69.424 109.832H73.424ZM70.238 89.0704C68.1078 83.0349 65.1248 78.2648 61.2056 74.9055L58.6024 77.9425C61.8512 80.7272 64.5002 84.8318 66.466 90.4016L70.238 89.0704ZM61.2439 74.9392C57.4193 71.4877 53.0709 69.688 48.256 69.688V73.688C51.9745 73.688 55.3914 75.0456 58.5641 77.9088L61.2439 74.9392ZM48.256 69.688C43.2558 69.688 38.8401 71.5856 35.0838 75.248L37.8762 78.112C40.9466 75.1183 44.3816 73.688 48.256 73.688V69.688ZM35.0843 75.2475C31.4566 78.7822 28.7119 83.667 26.7665 89.7684L30.5775 90.9835C32.3868 85.309 34.8475 81.0631 37.8757 78.1125L35.0843 75.2475ZM26.7611 89.7859C24.898 95.8186 23.984 102.68 23.984 110.344H27.984C27.984 102.989 28.862 96.5387 30.583 90.9661L26.7611 89.7859ZM176.497 73.736L176.78 75.7159L178.497 75.4706V73.736H176.497ZM169.841 75.912L168.688 74.2781H168.688L169.841 75.912ZM166.897 80.776L168.846 81.2257V81.2257L166.897 80.776ZM164.849 129.416L162.889 129.016L162.886 129.032L162.883 129.047L164.849 129.416ZM160.881 140.168L162.572 141.236L162.58 141.223L162.588 141.211L160.881 140.168ZM151.665 147.976L152.513 149.787L152.521 149.784L152.529 149.78L151.665 147.976ZM115.441 145.16L114.248 146.765L114.272 146.783L114.296 146.8L115.441 145.16ZM108.657 137.992L106.942 139.021L108.657 137.992ZM105.329 128.776L103.355 129.097L103.359 129.124L103.364 129.15L105.329 128.776ZM103.665 77.704L101.746 78.2683L101.761 78.3194L101.779 78.3696L103.665 77.704ZM100.977 74.76L100.234 76.617L100.254 76.625L100.275 76.6327L100.977 74.76ZM94.833 73.736H92.833V75.6185L94.712 75.7323L94.833 73.736ZM94.833 71.176L94.9528 69.1796L92.833 69.0524V71.176H94.833ZM133.617 71.176H135.617V69.0618L133.506 69.1791L133.617 71.176ZM133.617 73.736L133.734 75.7326L135.617 75.6218V73.736H133.617ZM127.345 74.76L126.602 72.903L126.602 72.903L127.345 74.76ZM124.657 77.704L122.771 77.0384L122.753 77.0886L122.738 77.1397L124.657 77.704ZM125.169 132.104L123.205 132.48L123.209 132.5L123.213 132.52L125.169 132.104ZM130.417 141.832L129.051 143.293L130.417 141.832ZM158.449 137.736L156.732 136.711L156.727 136.719L158.449 137.736ZM162.289 81.16L164.229 80.6749V80.6749L162.289 81.16ZM158.833 76.04L157.743 77.7169L157.773 77.7365L157.804 77.755L158.833 76.04ZM150.769 73.736H148.769V75.5169L150.538 75.7226L150.769 73.736ZM150.769 71.176L150.922 69.1819L148.769 69.0162V71.176H150.769ZM176.497 71.176H178.497V68.9859L176.316 69.1842L176.497 71.176ZM176.214 71.7561C173.105 72.2003 170.518 72.9857 168.688 74.2781L170.994 77.5459C172.065 76.7903 173.916 76.1251 176.78 75.7159L176.214 71.7561ZM168.688 74.2781C166.732 75.6584 165.539 77.7678 164.948 80.3263L168.846 81.2257C169.279 79.3468 170.049 78.2135 170.994 77.5459L168.688 74.2781ZM164.948 80.3263C164.384 82.771 164.129 86.2392 164.129 90.632H168.129C168.129 86.3208 168.386 83.2183 168.846 81.2257L164.948 80.3263ZM164.129 90.632V114.312H168.129V90.632H164.129ZM164.129 114.312C164.129 120.112 163.708 125.005 162.889 129.016L166.809 129.816C167.697 125.464 168.129 120.288 168.129 114.312H164.129ZM162.883 129.047C162.153 132.942 160.907 136.29 159.174 139.125L162.588 141.211C164.61 137.902 166.009 134.082 166.815 129.785L162.883 129.047ZM159.19 139.1C157.377 141.97 154.621 144.342 150.801 146.172L152.529 149.78C156.901 147.685 160.289 144.851 162.572 141.236L159.19 139.1ZM150.817 146.165C147.11 147.9 142.842 148.792 137.969 148.792V152.792C143.336 152.792 148.198 151.807 152.513 149.787L150.817 146.165ZM137.969 148.792C128.553 148.792 121.502 146.954 116.586 143.52L114.296 146.8C120.132 150.876 128.1 152.792 137.969 152.792V148.792ZM116.634 143.555C113.807 141.455 111.745 139.251 110.372 136.963L106.942 139.021C108.641 141.853 111.102 144.428 114.248 146.765L116.634 143.555ZM110.372 136.963C108.981 134.644 107.942 131.804 107.294 128.402L103.364 129.15C104.082 132.916 105.261 136.22 106.942 139.021L110.372 136.963ZM107.303 128.455C106.73 124.932 106.433 120.356 106.433 114.696H102.433C102.433 120.47 102.734 125.281 103.355 129.097L107.303 128.455ZM106.433 114.696V84.744H102.433V114.696H106.433ZM106.433 84.744C106.433 81.4688 106.184 78.8306 105.551 77.0384L101.779 78.3696C102.17 79.4787 102.433 81.5338 102.433 84.744H106.433ZM105.584 77.1397C104.987 75.1121 103.658 73.6294 101.679 72.8873L100.275 76.6327C101.026 76.9145 101.489 77.3946 101.746 78.2683L105.584 77.1397ZM101.72 72.903C100.126 72.2657 97.8085 71.9127 94.954 71.7397L94.712 75.7323C97.4895 75.9007 99.2677 76.2303 100.234 76.617L101.72 72.903ZM96.833 73.736V71.176H92.833V73.736H96.833ZM94.7132 73.1724C99.0424 73.4322 105.577 73.56 114.289 73.56V69.56C105.593 69.56 99.157 69.4318 94.9528 69.1796L94.7132 73.1724ZM114.289 73.56C122.579 73.56 129.065 73.432 133.728 73.1729L133.506 69.1791C128.953 69.432 122.553 69.56 114.289 69.56V73.56ZM131.617 71.176V73.736H135.617V71.176H131.617ZM133.5 71.7394C130.567 71.9119 128.201 72.2636 126.602 72.903L128.088 76.617C129.049 76.2324 130.864 75.9014 133.734 75.7326L133.5 71.7394ZM126.602 72.903C124.722 73.6552 123.45 75.1149 122.771 77.0384L126.543 78.3696C126.888 77.3918 127.408 76.8888 128.088 76.6169L126.602 72.903ZM122.738 77.1397C122.225 78.8843 122.017 81.477 122.017 84.744H126.017C126.017 81.5257 126.236 79.425 126.576 78.2683L122.738 77.1397ZM122.017 84.744V116.872H126.017V84.744H122.017ZM122.017 116.872C122.017 123.086 122.404 128.3 123.205 132.48L127.133 131.728C126.398 127.886 126.017 122.946 126.017 116.872H122.017ZM123.213 132.52C124.14 136.876 126.068 140.502 129.051 143.293L131.783 140.371C129.475 138.212 127.905 135.353 127.125 131.688L123.213 132.52ZM129.051 143.293C132.201 146.24 136.701 147.544 142.193 147.544V143.544C137.274 143.544 133.924 142.374 131.783 140.371L129.051 143.293ZM142.193 147.544C150.435 147.544 156.636 144.743 160.171 138.753L156.727 136.719C154.118 141.139 149.482 143.544 142.193 143.544V147.544ZM160.166 138.761C163.581 133.039 165.185 125.293 165.185 115.72H161.185C161.185 124.92 159.631 131.852 156.732 136.711L160.166 138.761ZM165.185 115.72V92.168H161.185V115.72H165.185ZM165.185 92.168C165.185 87.1846 164.889 83.3124 164.229 80.6749L160.349 81.6451C160.884 83.7862 161.185 87.2527 161.185 92.168H165.185ZM164.229 80.6749C163.536 77.9005 162.126 75.6837 159.862 74.325L157.804 77.755C158.953 78.4443 159.848 79.6408 160.349 81.6451L164.229 80.6749ZM159.923 74.3631C157.825 72.9992 154.765 72.1872 151 71.7494L150.538 75.7226C154.112 76.1382 156.428 76.8621 157.743 77.7169L159.923 74.3631ZM152.769 73.736V71.176H148.769V73.736H152.769ZM150.616 73.1701C154.019 73.4319 158.686 73.56 164.593 73.56V69.56C158.724 69.56 154.175 69.4321 150.922 69.1819L150.616 73.1701ZM164.593 73.56C169.734 73.56 173.772 73.432 176.678 73.1678L176.316 69.1842C173.59 69.432 169.693 69.56 164.593 69.56V73.56ZM174.497 71.176V73.736H178.497V71.176H174.497ZM217.331 73.736L217.448 75.7326L219.331 75.6218V73.736H217.331ZM211.059 74.76L210.316 72.903V72.903L211.059 74.76ZM208.371 77.704L206.485 77.0384L206.467 77.0886L206.452 77.1397L208.371 77.704ZM208.371 142.472L206.452 143.036L206.467 143.087L206.485 143.138L208.371 142.472ZM211.059 145.416L211.802 143.559L211.059 145.416ZM217.331 146.44H219.331V144.554L217.448 144.443L217.331 146.44ZM217.331 149L217.214 150.997L219.331 151.121V149H217.331ZM178.547 149H176.547V151.124L178.667 150.996L178.547 149ZM178.547 146.44L178.43 144.443L176.547 144.554V146.44H178.547ZM184.819 145.416L185.562 147.273L184.819 145.416ZM187.379 142.472L185.493 141.806L185.475 141.857L185.46 141.908L187.379 142.472ZM187.379 77.704L185.46 78.2683L185.475 78.3194L185.493 78.3696L187.379 77.704ZM184.691 74.76L183.948 76.617L183.968 76.625L183.989 76.6327L184.691 74.76ZM178.547 73.736H176.547V75.6185L178.426 75.7323L178.547 73.736ZM178.547 71.176L178.669 69.1797L176.547 69.0498V71.176H178.547ZM217.331 71.176H219.331V69.0549L217.214 69.1794L217.331 71.176ZM217.214 71.7394C214.281 71.9119 211.915 72.2636 210.316 72.903L211.802 76.617C212.763 76.2324 214.578 75.9014 217.448 75.7326L217.214 71.7394ZM210.316 72.903C208.436 73.6552 207.164 75.1149 206.485 77.0384L210.257 78.3696C210.602 77.3918 211.122 76.8888 211.802 76.6169L210.316 72.903ZM206.452 77.1397C205.939 78.8843 205.731 81.477 205.731 84.744H209.731C209.731 81.5257 209.95 79.425 210.29 78.2683L206.452 77.1397ZM205.731 84.744V135.432H209.731V84.744H205.731ZM205.731 135.432C205.731 138.699 205.939 141.292 206.452 143.036L210.29 141.908C209.95 140.751 209.731 138.65 209.731 135.432H205.731ZM206.485 143.138C207.164 145.061 208.436 146.521 210.316 147.273L211.802 143.559C211.122 143.287 210.602 142.784 210.257 141.806L206.485 143.138ZM210.316 147.273C211.915 147.912 214.281 148.264 217.214 148.437L217.448 144.443C214.578 144.275 212.763 143.944 211.802 143.559L210.316 147.273ZM215.331 146.44V149H219.331V146.44H215.331ZM217.448 147.003C213.037 146.744 206.675 146.616 198.387 146.616V150.616C206.653 150.616 212.921 150.744 217.214 150.997L217.448 147.003ZM198.387 146.616C189.42 146.616 182.757 146.744 178.427 147.004L178.667 150.996C182.87 150.744 189.434 150.616 198.387 150.616V146.616ZM180.547 149V146.44H176.547V149H180.547ZM178.664 148.437C181.597 148.264 183.963 147.912 185.562 147.273L184.076 143.559C183.115 143.944 181.3 144.275 178.43 144.443L178.664 148.437ZM185.562 147.273C187.472 146.509 188.717 145.01 189.298 143.036L185.46 141.908C185.187 142.835 184.726 143.299 184.076 143.559L185.562 147.273ZM189.265 143.138C189.898 141.345 190.147 138.707 190.147 135.432H186.147C186.147 138.642 185.884 140.697 185.493 141.806L189.265 143.138ZM190.147 135.432V84.744H186.147V135.432H190.147ZM190.147 84.744C190.147 81.4688 189.898 78.8306 189.265 77.0384L185.493 78.3696C185.884 79.4787 186.147 81.5338 186.147 84.744H190.147ZM189.298 77.1397C188.701 75.1121 187.372 73.6294 185.393 72.8873L183.989 76.6327C184.74 76.9145 185.203 77.3946 185.46 78.2683L189.298 77.1397ZM185.434 72.903C183.84 72.2657 181.523 71.9127 178.668 71.7397L178.426 75.7323C181.203 75.9007 182.982 76.2303 183.948 76.617L185.434 72.903ZM180.547 73.736V71.176H176.547V73.736H180.547ZM178.425 73.1723C182.671 73.4322 189.336 73.56 198.387 73.56V69.56C189.347 69.56 182.785 69.4317 178.669 69.1797L178.425 73.1723ZM198.387 73.56C206.675 73.56 213.037 73.4321 217.448 73.1725L217.214 69.1794C212.921 69.4319 206.653 69.56 198.387 69.56V73.56ZM215.331 71.176V73.736H219.331V71.176H215.331ZM285.311 73.736L287.059 74.7076L287.311 74.2544V73.736H285.311ZM245.119 146.056L243.371 145.084L241.719 148.056H245.119V146.056ZM274.431 140.168L272.986 138.785L272.986 138.786L274.431 140.168ZM282.495 120.072V118.072H280.796L280.521 119.749L282.495 120.072ZM285.439 120.072L287.432 120.234L287.608 118.072H285.439V120.072ZM285.951 149L285.864 150.998L288.158 151.098L287.942 148.812L285.951 149ZM223.615 149H221.615V151.077L223.691 150.999L223.615 149ZM223.615 146.44L221.867 145.468L221.615 145.922V146.44H223.615ZM263.807 74.12L265.555 75.0915L267.207 72.12H263.807V74.12ZM235.135 79.752L236.549 81.1662L236.557 81.1581L236.565 81.1499L235.135 79.752ZM227.327 98.568V100.568H229.011L229.298 98.9091L227.327 98.568ZM224.383 98.568L222.392 98.3813L222.187 100.568H224.383V98.568ZM223.871 71.176L223.951 69.1776L221.652 69.0856L221.881 71.375L223.871 71.176ZM285.311 71.176H287.311V69.0897L285.227 69.1778L285.311 71.176ZM283.563 72.7645L243.371 145.084L246.867 147.028L287.059 74.7076L283.563 72.7645ZM245.119 148.056H258.687V144.056H245.119V148.056ZM258.687 148.056C265.834 148.056 271.657 145.961 275.876 141.55L272.986 138.786C269.695 142.225 265.023 144.056 258.687 144.056V148.056ZM275.876 141.551C280.131 137.106 282.909 129.927 284.469 120.395L280.521 119.749C279.009 128.99 276.411 135.208 272.986 138.785L275.876 141.551ZM282.495 122.072H285.439V118.072H282.495V122.072ZM283.446 119.91C283.184 123.142 283.055 127.211 283.055 132.104H287.055C287.055 127.269 287.182 123.317 287.432 120.234L283.446 119.91ZM283.055 132.104C283.055 137.131 283.358 142.827 283.96 149.188L287.942 148.812C287.349 142.543 287.055 136.976 287.055 132.104H283.055ZM286.038 147.002C280.102 146.744 269.994 146.616 255.743 146.616V150.616C269.994 150.616 280.024 150.744 285.864 150.998L286.038 147.002ZM255.743 146.616C241.063 146.616 230.321 146.744 223.539 147.001L223.691 150.999C230.392 150.744 241.069 150.616 255.743 150.616V146.616ZM225.615 149V146.44H221.615V149H225.615ZM225.363 147.412L265.555 75.0915L262.059 73.1484L221.867 145.468L225.363 147.412ZM263.807 72.12H250.367V76.12H263.807V72.12ZM250.367 72.12C243.478 72.12 237.835 74.1276 233.705 78.3541L236.565 81.1499C239.774 77.8671 244.285 76.12 250.367 76.12V72.12ZM233.721 78.3378C229.614 82.4443 226.917 89.2113 225.356 98.2269L229.298 98.9091C230.809 90.1754 233.317 84.3983 236.549 81.1662L233.721 78.3378ZM227.327 96.568H224.383V100.568H227.327V96.568ZM226.374 98.7547C226.639 95.9329 226.767 92.1066 226.767 87.304H222.767C222.767 92.0587 222.639 95.7418 222.392 98.3813L226.374 98.7547ZM226.767 87.304C226.767 82.4446 226.463 77.0005 225.861 70.977L221.881 71.375C222.473 77.2981 222.767 82.606 222.767 87.304H226.767ZM223.791 73.1744C230.235 73.4322 240.979 73.56 255.999 73.56V69.56C240.981 69.56 230.307 69.4318 223.951 69.1776L223.791 73.1744ZM255.999 73.56C269.484 73.56 279.291 73.4321 285.395 73.1742L285.227 69.1778C279.213 69.4319 269.479 69.56 255.999 69.56V73.56ZM283.311 71.176V73.736H287.311V71.176H283.311Z" fill="black" mask="url(#path-3-outside-2_178_2848)"/>
<defs>
<linearGradient id="paint0_linear_178_2848" x1="318" y1="112" x2="318" y2="304" gradientUnits="userSpaceOnUse">
<stop stop-color="white"/>
<stop offset="1" stop-color="#FFFF56"/>
</linearGradient>
<linearGradient id="paint1_linear_178_2848" x1="146" y1="0" x2="146" y2="192" gradientUnits="userSpaceOnUse">
<stop stop-color="white"/>
<stop offset="1" stop-color="#FFC9C4"/>
</linearGradient>
</defs>
</svg>
