<svg width="39" height="40" viewBox="0 0 39 40" fill="none" xmlns="http://www.w3.org/2000/svg">
<rect x="0.75" y="0.994385" width="37.5" height="37.5" rx="18.75" fill="url(#paint0_linear_588_1081)" stroke="black" stroke-width="1.5"/>
<path d="M11.25 17.994H26.075L21.5375 12.544C21.3253 12.2887 21.2232 11.9596 21.2537 11.6291C21.2842 11.2986 21.4447 10.9937 21.7 10.7815C21.9553 10.5693 22.2844 10.4672 22.6149 10.4977C22.9454 10.5282 23.2503 10.6887 23.4625 10.944L29.7125 18.444C29.7545 18.5037 29.7922 18.5663 29.825 18.6315C29.825 18.694 29.825 18.7315 29.9125 18.794C29.9692 18.9373 29.9988 19.0899 30 19.244C29.9988 19.3981 29.9692 19.5507 29.9125 19.694C29.9125 19.7565 29.9125 19.794 29.825 19.8565C29.7922 19.9217 29.7545 19.9843 29.7125 20.044L23.4625 27.544C23.345 27.6851 23.1978 27.7986 23.0314 27.8764C22.8651 27.9541 22.6836 27.9943 22.5 27.994C22.2079 27.9946 21.9249 27.8928 21.7 27.7065C21.5734 27.6016 21.4688 27.4727 21.3921 27.3272C21.3154 27.1818 21.2682 27.0227 21.2531 26.859C21.238 26.6952 21.2553 26.5302 21.3041 26.3731C21.3529 26.2161 21.4322 26.0703 21.5375 25.944L26.075 20.494H11.25C10.9185 20.494 10.6005 20.3623 10.3661 20.1279C10.1317 19.8935 10 19.5755 10 19.244C10 18.9125 10.1317 18.5945 10.3661 18.3601C10.6005 18.1257 10.9185 17.994 11.25 17.994Z" fill="#0B132A"/>
<defs>
<linearGradient id="paint0_linear_588_1081" x1="19.5" y1="0.244385" x2="19.5" y2="39.2444" gradientUnits="userSpaceOnUse">
<stop stop-color="white"/>
<stop offset="0.9999" stop-color="#ADADAD"/>
</linearGradient>
</defs>
</svg>
