<svg width="20" height="18" viewBox="0 0 20 18" fill="none" xmlns="http://www.w3.org/2000/svg">
<path d="M18.75 9.9999L3.925 9.9999L8.4625 15.4499C8.67467 15.7052 8.77675 16.0343 8.74628 16.3648C8.7158 16.6953 8.55527 17.0002 8.3 17.2124C8.04473 17.4246 7.71563 17.5267 7.3851 17.4962C7.05456 17.4657 6.74967 17.3052 6.5375 17.0499L0.2875 9.5499C0.245451 9.49024 0.207849 9.42757 0.175 9.3624C0.175 9.2999 0.175 9.2624 0.0875002 9.1999C0.0308421 9.05658 0.0011764 8.90401 0 8.7499C0.0011764 8.59579 0.0308421 8.44322 0.0875002 8.2999C0.0875002 8.2374 0.0874998 8.1999 0.175 8.1374C0.207849 8.07222 0.245451 8.00955 0.2875 7.9499L6.5375 0.4499C6.65503 0.308796 6.8022 0.195321 6.96856 0.117544C7.13491 0.0397678 7.31636 -0.000399317 7.5 -0.000101089C7.79207 -0.000671731 8.07511 0.101048 8.3 0.287399C8.42657 0.392336 8.5312 0.521213 8.60789 0.666647C8.68458 0.812081 8.73183 0.971213 8.74692 1.13493C8.76202 1.29865 8.74466 1.46375 8.69586 1.62075C8.64705 1.77775 8.56775 1.92359 8.4625 2.0499L3.925 7.4999L18.75 7.4999C19.0815 7.4999 19.3995 7.6316 19.6339 7.86602C19.8683 8.10044 20 8.41838 20 8.7499C20 9.08142 19.8683 9.39936 19.6339 9.63378C19.3995 9.8682 19.0815 9.9999 18.75 9.9999Z" fill="#0B132A"/>
</svg>
