<svg width="20" height="18" viewBox="0 0 20 18" fill="none" xmlns="http://www.w3.org/2000/svg">
<path d="M1.25 7.994H16.075L11.5375 2.544C11.3253 2.28873 11.2232 1.95963 11.2537 1.62909C11.2842 1.29856 11.4447 0.99367 11.7 0.781497C11.9553 0.569324 12.2844 0.467246 12.6149 0.497721C12.9454 0.528196 13.2503 0.688726 13.4625 0.943997L19.7125 8.444C19.7545 8.50365 19.7922 8.56632 19.825 8.6315C19.825 8.694 19.825 8.7315 19.9125 8.794C19.9692 8.93732 19.9988 9.08989 20 9.244C19.9988 9.39811 19.9692 9.55067 19.9125 9.694C19.9125 9.7565 19.9125 9.794 19.825 9.8565C19.7922 9.92167 19.7545 9.98434 19.7125 10.044L13.4625 17.544C13.345 17.6851 13.1978 17.7986 13.0314 17.8764C12.8651 17.9541 12.6836 17.9943 12.5 17.994C12.2079 17.9946 11.9249 17.8928 11.7 17.7065C11.5734 17.6016 11.4688 17.4727 11.3921 17.3272C11.3154 17.1818 11.2682 17.0227 11.2531 16.859C11.238 16.6952 11.2553 16.5302 11.3041 16.3731C11.3529 16.2161 11.4322 16.0703 11.5375 15.944L16.075 10.494H1.25C0.91848 10.494 0.600536 10.3623 0.366116 10.1279C0.131695 9.89346 0 9.57552 0 9.244C0 8.91248 0.131695 8.59453 0.366116 8.36011C0.600536 8.12569 0.91848 7.994 1.25 7.994Z" fill="#0B132A"/>
</svg>
