<svg width="592" height="1005" viewBox="0 0 592 1005" fill="none" xmlns="http://www.w3.org/2000/svg">
<path d="M0.5 16.5H591.5V1004.5H0.5V16.5Z" fill="#FDDB92" stroke="#DADADA"/>
<rect x="32.5" y="0.5" width="7" height="31" rx="3.5" fill="#FF8C82" stroke="black"/>
<rect x="72.5" y="0.5" width="7" height="31" rx="3.5" fill="#FF8C82" stroke="black"/>
<rect x="112.5" y="0.5" width="7" height="31" rx="3.5" fill="#FF8C82" stroke="black"/>
<rect x="152.5" y="0.5" width="7" height="31" rx="3.5" fill="#FF8C82" stroke="black"/>
<rect x="192.5" y="0.5" width="7" height="31" rx="3.5" fill="#FF8C82" stroke="black"/>
<rect x="232.5" y="0.5" width="7" height="31" rx="3.5" fill="#FF8C82" stroke="black"/>
<rect x="272.5" y="0.5" width="7" height="31" rx="3.5" fill="#FF8C82" stroke="black"/>
<rect x="312.5" y="0.5" width="7" height="31" rx="3.5" fill="#FF8C82" stroke="black"/>
<rect x="352.5" y="0.5" width="7" height="31" rx="3.5" fill="#FF8C82" stroke="black"/>
<rect x="392.5" y="0.5" width="7" height="31" rx="3.5" fill="#FF8C82" stroke="black"/>
<rect x="432.5" y="0.5" width="7" height="31" rx="3.5" fill="#FF8C82" stroke="black"/>
<rect x="472.5" y="0.5" width="7" height="31" rx="3.5" fill="#FF8C82" stroke="black"/>
<rect x="512.5" y="0.5" width="7" height="31" rx="3.5" fill="#FF8C82" stroke="black"/>
<rect x="552.5" y="0.5" width="7" height="31" rx="3.5" fill="#FF8C82" stroke="black"/>
</svg>
