<svg width="34" height="34" viewBox="0 0 34 34" fill="none" xmlns="http://www.w3.org/2000/svg">
<path d="M33.6 16.7999C33.6 26.0783 26.0784 33.5999 16.8001 33.5999C7.52171 33.5999 0.00012207 26.0783 0.00012207 16.7999C0.00012207 7.52159 7.52171 0 16.8001 0C26.0784 0 33.6 7.52159 33.6 16.7999Z" fill="#1A202C"/>
<path d="M16.8001 0C7.52171 0 0.00012207 7.52159 0.00012207 16.7999C0.00012207 26.0783 7.52171 33.5999 16.8001 33.5999C26.0784 33.5999 33.6 26.0783 33.6 16.7999C33.6 7.52159 26.0784 0 16.8001 0ZM20.7795 11.6095H18.2543C17.955 11.6095 17.6225 12.0033 17.6225 12.5265V14.35H20.7813L20.3035 16.9505H17.6225V24.7573H14.6423V16.9505H11.9385V14.35H14.6423V12.8205C14.6423 10.626 16.1648 8.84275 18.2543 8.84275H20.7795V11.6095Z" fill="white"/>
</svg>
