<svg width="12" height="12" viewBox="0 0 12 12" fill="none" xmlns="http://www.w3.org/2000/svg">
<path d="M2.5 1C2.10218 1 1.72064 1.15804 1.43934 1.43934C1.15804 1.72064 1 2.10218 1 2.5V4C1 4.27614 1.22386 4.5 1.5 4.5C1.77614 4.5 2 4.27614 2 4V2.5C2 2.36739 2.05268 2.24021 2.14645 2.14645C2.24021 2.05268 2.36739 2 2.5 2H4C4.27614 2 4.5 1.77614 4.5 1.5C4.5 1.22386 4.27614 1 4 1H2.5Z" fill="#2D3648"/>
<path d="M8 1C7.72386 1 7.5 1.22386 7.5 1.5C7.5 1.77614 7.72386 2 8 2H9.5C9.63261 2 9.75978 2.05268 9.85355 2.14645C9.94732 2.24021 10 2.36739 10 2.5V4C10 4.27614 10.2239 4.5 10.5 4.5C10.7761 4.5 11 4.27614 11 4V2.5C11 2.10217 10.842 1.72064 10.5607 1.43934C10.2794 1.15804 9.89783 1 9.5 1H8Z" fill="#2D3648"/>
<path d="M2 8C2 7.72386 1.77614 7.5 1.5 7.5C1.22386 7.5 1 7.72386 1 8V9.5C1 9.89783 1.15804 10.2794 1.43934 10.5607C1.72064 10.842 2.10217 11 2.5 11H4C4.27614 11 4.5 10.7761 4.5 10.5C4.5 10.2239 4.27614 10 4 10H2.5C2.36739 10 2.24021 9.94732 2.14645 9.85355C2.05268 9.75978 2 9.63261 2 9.5V8Z" fill="#2D3648"/>
<path d="M11 8C11 7.72386 10.7761 7.5 10.5 7.5C10.2239 7.5 10 7.72386 10 8V9.5C10 9.63261 9.94732 9.75978 9.85355 9.85355C9.75978 9.94732 9.63261 10 9.5 10H8C7.72386 10 7.5 10.2239 7.5 10.5C7.5 10.7761 7.72386 11 8 11H9.5C9.89783 11 10.2794 10.842 10.5607 10.5607C10.842 10.2794 11 9.89783 11 9.5V8Z" fill="#2D3648"/>
</svg>
