<svg width="61" height="61" viewBox="0 0 61 61" fill="none" xmlns="http://www.w3.org/2000/svg">
<circle cx="30.5" cy="30.5" r="29.75" fill="url(#paint0_linear_156_1294)" stroke="black" stroke-width="1.5"/>
<path d="M28.5 28.5C29.1904 28.5 29.75 29.0596 29.75 29.75V37.25C29.75 37.9404 29.1904 38.5 28.5 38.5C27.8096 38.5 27.25 37.9404 27.25 37.25V29.75C27.25 29.0596 27.8096 28.5 28.5 28.5Z" fill="black"/>
<path d="M34.75 37.25V29.75C34.75 29.0596 34.1904 28.5 33.5 28.5C32.8096 28.5 32.25 29.0596 32.25 29.75V37.25C32.25 37.9404 32.8096 38.5 33.5 38.5C34.1904 38.5 34.75 37.9404 34.75 37.25Z" fill="black"/>
<path fill-rule="evenodd" clip-rule="evenodd" d="M24.75 22.25V21C24.75 20.0054 25.1451 19.0516 25.8484 18.3483C26.5516 17.6451 27.5054 17.25 28.5 17.25H33.5C34.4946 17.25 35.4484 17.6451 36.1516 18.3483C36.8549 19.0516 37.25 20.0054 37.25 21V22.25H42.25C42.9404 22.25 43.5 22.8096 43.5 23.5C43.5 24.1904 42.9404 24.75 42.25 24.75H41V41C41 41.9946 40.6049 42.9484 39.9016 43.6517C39.1984 44.3549 38.2446 44.75 37.25 44.75H24.75C23.7554 44.75 22.8016 44.3549 22.0983 43.6517C21.3951 42.9484 21 41.9946 21 41V24.75H19.75C19.0596 24.75 18.5 24.1904 18.5 23.5C18.5 22.8096 19.0596 22.25 19.75 22.25H24.75ZM27.6161 20.1161C27.8505 19.8817 28.1685 19.75 28.5 19.75H33.5C33.8315 19.75 34.1495 19.8817 34.3839 20.1161C34.6183 20.3505 34.75 20.6685 34.75 21V22.25H27.25V21C27.25 20.6685 27.3817 20.3505 27.6161 20.1161ZM23.5 24.75V41C23.5 41.3315 23.6317 41.6495 23.8661 41.8839C24.1005 42.1183 24.4185 42.25 24.75 42.25H37.25C37.5815 42.25 37.8995 42.1183 38.1339 41.8839C38.3683 41.6495 38.5 41.3315 38.5 41V24.75H23.5Z" fill="black"/>
<defs>
<linearGradient id="paint0_linear_156_1294" x1="30.5" y1="0" x2="30.5" y2="61" gradientUnits="userSpaceOnUse">
<stop stop-color="white"/>
<stop offset="1" stop-color="#ADADAD"/>
</linearGradient>
</defs>
</svg>
