<svg width="30" height="30" viewBox="0 0 30 30" fill="none" xmlns="http://www.w3.org/2000/svg">
<path d="M12.5 12.5C13.1904 12.5 13.75 13.0596 13.75 13.75V21.25C13.75 21.9404 13.1904 22.5 12.5 22.5C11.8096 22.5 11.25 21.9404 11.25 21.25V13.75C11.25 13.0596 11.8096 12.5 12.5 12.5Z" fill="black"/>
<path d="M18.75 21.25V13.75C18.75 13.0596 18.1904 12.5 17.5 12.5C16.8096 12.5 16.25 13.0596 16.25 13.75V21.25C16.25 21.9404 16.8096 22.5 17.5 22.5C18.1904 22.5 18.75 21.9404 18.75 21.25Z" fill="black"/>
<path fill-rule="evenodd" clip-rule="evenodd" d="M8.75 6.25V5C8.75 4.00544 9.14509 3.05161 9.84835 2.34835C10.5516 1.64509 11.5054 1.25 12.5 1.25H17.5C18.4946 1.25 19.4484 1.64509 20.1516 2.34835C20.8549 3.05161 21.25 4.00544 21.25 5V6.25H26.25C26.9404 6.25 27.5 6.80964 27.5 7.5C27.5 8.19036 26.9404 8.75 26.25 8.75H25V25C25 25.9946 24.6049 26.9484 23.9016 27.6517C23.1984 28.3549 22.2446 28.75 21.25 28.75H8.75C7.75544 28.75 6.80161 28.3549 6.09835 27.6517C5.39509 26.9484 5 25.9946 5 25V8.75H3.75C3.05964 8.75 2.5 8.19036 2.5 7.5C2.5 6.80964 3.05964 6.25 3.75 6.25H8.75ZM11.6161 4.11612C11.8505 3.8817 12.1685 3.75 12.5 3.75H17.5C17.8315 3.75 18.1495 3.8817 18.3839 4.11612C18.6183 4.35054 18.75 4.66848 18.75 5V6.25H11.25V5C11.25 4.66848 11.3817 4.35054 11.6161 4.11612ZM7.5 8.75V25C7.5 25.3315 7.6317 25.6495 7.86612 25.8839C8.10054 26.1183 8.41848 26.25 8.75 26.25H21.25C21.5815 26.25 21.8995 26.1183 22.1339 25.8839C22.3683 25.6495 22.5 25.3315 22.5 25V8.75H7.5Z" fill="black"/>
</svg>
